<?xml version="1.0" encoding="UTF-8"?>
<svg id="Capa_2" data-name="Capa 2" xmlns="http://www.w3.org/2000/svg" xmlns:xlink="http://www.w3.org/1999/xlink" viewBox="0 0 750 500">
  <defs>
    <style>
      .cls-1 {
        fill: #44ae94;
      }

      .cls-1, .cls-2 {
        stroke-width: 0px;
      }

      .cls-3 {
        opacity: .05;
      }

      .cls-2 {
        fill: none;
      }

      .cls-4 {
        clip-path: url(#clippath);
      }
    </style>
    <clipPath id="clippath">
      <rect class="cls-2" width="750" height="500"/>
    </clipPath>
  </defs>
  <g id="OBJECTS">
    <g class="cls-3">
      <g class="cls-4">
        <g>
          <path class="cls-1" d="M532.77,201.34c-51.37-12.37-104.32-15.16-156.25-24.29-22.04-3.87-48.95-7.08-62.18-27.53-5.04-7.8-7.81-16.82-9.8-25.82-2.43-11-4.15-22.25-5.25-33.46-2.43-25-1.29-50.64,5.26-74.97,5.17-19.18,13.87-37.27,25.61-53.3s26.22-29.96,41.84-42.21c18.15-14.25,37.8-25.45,59.62-33.05s44.19-11.84,66.7-15.73c11.55-2,23.1-3.96,34.64-5.97,13.27-2.31,26.62-4.42,40.1-4.85s26.64,1.23,39.63,4.6c12.19,3.16,24.02,7.52,35.8,11.92,23.83,8.91,47.68,18.09,70.07,30.28,19.82,10.79,38.51,24.05,53.85,40.69,15.69,17.03,26.73,37.29,33.04,59.54,6.39,22.53,8.29,46.1,8.46,69.44.18,25.1-.86,50.7-7.56,75.02-5.8,21.05-16.28,41.28-32.56,56.11-16.98,15.47-38.81,21.73-61.38,22.74-22.09.99-44.19-2.21-66.04-5.1-26.08-3.46-51.81-9.1-77.38-15.23-12.09-2.9-24.15-5.9-36.23-8.83-.85-.2-3.9,1.15-2.84,1.41,25.97,6.29,51.87,12.94,78.09,18.12,23.83,4.71,48.06,8.19,72.27,10.27,21.74,1.87,44.26,1.86,65.17-5.14,20.43-6.84,37.04-20.9,48.6-38.94,12.94-20.18,18.94-43.73,21.48-67.36s2.75-50.19.37-74.93c-2.3-23.95-7.77-47.91-19.26-69.22-10.77-19.99-26.62-36.8-44.62-50.47-19.53-14.84-41.56-25.96-64.09-35.47-11.78-4.97-23.73-9.52-35.7-14-12.38-4.63-24.8-9.25-37.63-12.5s-25.16-4.76-38.05-4.51-26.77,2.23-39.99,4.49c-23.49,4.01-47.12,7.64-70.39,12.77s-44.58,11.76-64.95,22.54c-19.05,10.09-36.55,23.66-52.06,38.6-14.27,13.75-26.7,29.46-35.8,47.12-10.04,19.49-15.64,40.85-17.73,62.62-2.43,25.31-.17,50.9,4.97,75.75,1.97,9.5,4.68,19.09,9.88,27.38s12.95,14.47,22.09,18.41c12.03,5.18,25.32,7.34,38.14,9.66s25.88,4.25,38.87,6c27.14,3.65,54.4,6.56,81.43,11.02,13.06,2.16,26.05,4.69,38.91,7.79.85.2,3.9-1.15,2.84-1.41Z"/>
          <path class="cls-1" d="M527.67-122.15c23.29-4.05,46.61-7.53,70.06-2.54,11.32,2.41,22.28,6.2,33.11,10.21s20.9,7.84,31.21,12.08c37.98,15.63,76.26,36.96,98.52,72.83,11.01,17.74,16.81,38.21,19.49,58.78,2.77,21.23,2.68,42.98,1.13,64.31-1.54,21.27-5.45,42.86-15.35,61.95-8.76,16.9-22.05,31.82-39.62,39.74-17.91,8.07-38.11,8.83-57.42,7.68-20.52-1.22-41.17-3.96-61.41-7.5-22.84-4-45.4-9.42-67.95-14.81-22.77-5.44-45.65-9.56-68.86-12.63-23.28-3.08-46.64-5.52-69.84-9.11-11.32-1.75-22.72-3.59-33.84-6.38-10.16-2.54-20.29-6.46-27.4-14.47-6.74-7.58-10.09-17.44-12.27-27.19-2.44-10.88-4.04-22.04-4.96-33.15-1.85-22.17-.54-44.86,5.45-66.36,4.71-16.91,12.46-32.81,22.81-46.98s23.05-26.49,36.78-37.39c15.88-12.61,33.06-22.69,52.14-29.64,18.96-6.91,38.82-10.96,58.66-14.43,9.85-1.72,19.71-3.31,29.56-5.01.54-.09,1.94-.42,1.98-1.16s-.95-.8-1.49-.71c-40.44,6.97-82.24,12.32-118.46,33.02-16.52,9.44-31.86,21.77-45.24,35.27-12.28,12.39-22.85,26.44-30.56,42.13-8.81,17.94-13.59,37.48-15.22,57.36-1.88,22.99.07,46.74,5.35,69.19,2.25,9.59,5.77,19.23,12.47,26.65s16.51,11.57,26.23,14.19c11.45,3.08,23.29,4.94,34.99,6.76s23.99,3.43,36.01,4.92c23.75,2.95,47.56,5.63,71.12,9.92s47.01,10.74,70.55,15.9c22.27,4.88,44.64,8.52,67.27,11.18,19.56,2.3,39.51,4.18,59.12,1.34s36.9-10.65,50.45-24.67c13.71-14.18,22.39-32.4,27.17-51.4,5.5-21.89,6.43-44.89,6.21-67.36-.21-21.31-2.31-42.85-8.91-63.21-6.42-19.79-17.44-37.41-32.12-52.12-14.68-14.71-32.19-26.32-50.61-35.8-20.44-10.51-42.05-18.73-63.62-26.58-10.78-3.93-21.74-7.54-33.03-9.72s-22.84-2.61-34.35-1.79-23.28,2.82-34.83,4.82c-.54.09-1.94.42-1.98,1.16s.95.8,1.49.71Z"/>
          <path class="cls-1" d="M528.34-110.33c20.46-3.48,41.05-6.45,61.62-2.06,9.69,2.07,19.1,5.28,28.38,8.71s18.41,6.94,27.5,10.71c33.44,13.89,67.03,33.05,86.45,64.77,19.47,31.79,20.09,72.04,16.93,108.08-1.65,18.83-5.48,37.8-14.52,54.57-8.03,14.88-20.07,27.71-35.74,34.52-15.98,6.94-33.97,7.57-51.12,6.6-18.36-1.04-36.82-3.28-54.95-6.34-20.2-3.4-40.16-8.05-60.11-12.67s-40.01-7.89-60.29-10.44c-20.35-2.56-40.77-4.65-61.05-7.75-10.01-1.53-20.17-3.05-29.94-5.75-8.81-2.44-17.12-6.32-22.75-13.77s-7.99-16.27-9.7-25.06c-1.9-9.8-3.21-19.76-3.82-29.72-1.18-19.35.42-39.13,5.98-57.75,4.44-14.86,11.58-28.87,20.91-41.25s20.65-23.2,32.86-32.75c14.02-10.96,29.23-19.69,46-25.72s33.97-9.56,51.32-12.58c8.67-1.51,17.36-2.89,26.05-4.34.68-.11,1.89-.48,1.93-1.35.04-.81-.89-1.16-1.58-1.05-35.71,5.96-72.63,10.83-104.61,29.02-14.61,8.31-28.13,19.08-40.04,30.93-11.03,10.98-20.6,23.49-27.63,37.4-17.23,34.08-18.09,74.34-10.63,111.17,1.79,8.82,4.51,17.83,10.14,25.02s13.61,11.13,22.12,13.63c9.69,2.86,19.85,4.38,29.81,5.95s20.84,2.99,31.28,4.26c21.15,2.57,42.36,4.81,63.37,8.38,20.75,3.53,41.12,8.94,61.7,13.31s40.19,7.48,60.57,9.69c17.42,1.89,35.18,3.54,52.64,1.09s32.75-9.12,45.06-21.31c12.62-12.51,20.65-28.89,25.2-45.92,5.13-19.2,6.27-39.46,6.31-59.25.03-18.57-1.62-37.37-7.19-55.15-5.48-17.47-15-33.05-27.77-46.13-12.79-13.09-28.04-23.56-44.19-32.06-17.8-9.37-36.67-16.68-55.52-23.6-9.54-3.5-19.21-6.71-29.19-8.7s-20.43-2.5-30.74-1.82-20.51,2.37-30.68,4.1c-.68.12-1.89.48-1.93,1.35-.04.81.89,1.16,1.58,1.05Z"/>
          <path class="cls-1" d="M528.84-99.14c9-1.46,18.02-2.91,27.13-3.39s17.71.15,26.41,2.06,16.93,4.79,25.15,7.88,15.75,6.02,23.51,9.33c28.61,12.2,57.36,29.49,73.42,57.11,8,13.76,12.02,29.4,13.58,45.15,1.61,16.31.95,32.98-.95,49.24-3.47,29.76-15.62,62.96-45.52,75.23-13.87,5.69-29.3,6.16-44.08,5.42-16.34-.82-32.76-2.63-48.91-5.23-17.3-2.79-34.41-6.59-51.51-10.4s-35.08-6.35-52.79-8.43c-17.69-2.08-35.42-3.84-53.03-6.56-8.51-1.32-17.29-2.51-25.48-5.29-7.38-2.5-13.65-6.72-17.67-13.5s-5.83-14.8-7.11-22.57c-1.4-8.56-2.38-17.18-2.69-25.85-.59-16.62,1.15-33.49,6.21-49.37,8.31-26.08,25.86-47.23,47.2-63.89,12.21-9.53,25.45-17.05,40.04-22.3s29.45-8.3,44.5-10.91c7.52-1.31,15.06-2.49,22.6-3.71.49-.08,1.97-.41,2-1.09s-.97-.66-1.46-.58c-31.04,5.04-63.02,9.49-90.9,25.04-12.76,7.11-24.5,16.41-34.94,26.6-9.72,9.49-18.15,20.28-24.51,32.3-15.5,29.32-16.85,63.8-11.33,95.93,1.34,7.79,3.28,15.71,7.59,22.44s10.25,10.44,17.36,12.9c8.25,2.85,17.12,4.09,25.71,5.43,9.03,1.41,18.09,2.56,27.17,3.63,18.26,2.15,36.56,3.95,54.73,6.81,17.97,2.83,35.61,7.27,53.44,10.89s35.42,6.26,53.37,7.97c15.01,1.43,30.22,2.68,45.24.73s29.2-7.52,40.3-17.97c10.92-10.28,18.26-23.76,22.65-38,5.08-16.46,6.52-33.94,7-51.09s-.62-32.87-5.25-48.6-12.47-28.72-23.29-40.18-24.32-21.03-38.39-28.62c-15.16-8.18-31.31-14.53-47.46-20.48-8.24-3.03-16.61-5.79-25.23-7.51s-17.92-2.18-26.96-1.59-17.57,1.95-26.29,3.36c-.49.08-1.97.41-2,1.09s.97.66,1.46.58Z"/>
          <path class="cls-1" d="M529.57-87.1c14.96-2.31,29.93-4.16,44.9-.94,7.21,1.55,14.21,3.97,21.1,6.57s13.29,5.14,19.82,7.98c24.04,10.49,47.9,25.63,61.02,49.13,6.65,11.93,9.74,25.55,10.61,39.09.88,13.79-.09,27.87-2.26,41.51s-6.04,26.75-13.55,38.15c-6.8,10.32-16.25,18.72-27.99,22.91s-24.8,4.65-37.29,4.11c-13.91-.6-27.83-1.89-41.6-3.94-14.55-2.17-28.91-5.24-43.31-8.16s-29.81-4.81-44.81-6.43-30-3.05-44.9-5.34c-6.98-1.07-14.26-2.04-20.8-4.87-5.96-2.59-10.18-7.14-12.76-13.07-2.78-6.4-3.88-13.39-4.77-20.27-.96-7.39-1.51-14.81-1.45-22.27.1-13.64,2.02-27.41,6.6-40.29,7.74-21.76,22.9-39.35,41.04-53.25,10.31-7.89,21.59-14.08,33.83-18.42,12.13-4.29,24.75-6.98,37.41-9.16,6.37-1.1,12.76-2.08,19.15-3.06.76-.12,1.84-.52,1.91-1.44.06-.83-.89-1.31-1.62-1.2-26.32,4.07-53.39,8-77.04,21.05-10.94,6.04-20.97,13.89-29.95,22.56-8.35,8.05-15.65,17.19-21.26,27.35-13.46,24.37-15.6,52.96-11.96,80.13.93,6.92,2.14,13.95,5.13,20.31,2.7,5.74,6.83,10.14,12.57,12.9,6.53,3.14,13.97,4.21,21.05,5.34,7.64,1.21,15.31,2.18,23,3.06,15.45,1.77,30.95,3.14,46.37,5.27s30.12,5.53,45.19,8.4c15.13,2.88,30.36,5.16,45.73,6.34,12.74.98,25.62,2.01,38.37.55s25.28-5.75,35.17-14.34,16.41-19.49,20.67-31.4c4.94-13.83,6.79-28.65,7.63-43.25.79-13.81.27-27.89-3.28-41.32-3.45-13.01-9.98-24.79-18.98-34.77s-20.22-18.42-32.07-25.07c-12.63-7.1-26.13-12.58-39.68-17.63-6.99-2.61-14.09-4.96-21.41-6.49s-15.19-2.02-22.85-1.62-14.97,1.5-22.4,2.64c-.76.12-1.84.52-1.91,1.44-.06.83.89,1.31,1.62,1.2Z"/>
          <path class="cls-1" d="M529.54-76.22c12.28-1.76,24.52-3.01,36.76-.26,5.88,1.32,11.58,3.29,17.21,5.44s10.78,4.26,16.05,6.66c19.47,8.86,38.58,22.05,48.66,41.51,5.13,9.92,7.33,21.03,7.68,32.13.36,11.38-.91,22.98-3.28,34.1-4.36,20.54-15.44,41.67-36.59,48.68-9.82,3.26-20.46,3.42-30.7,3.12-11.51-.33-22.99-1.13-34.41-2.64s-23.61-4-35.42-6-24.54-3.28-36.87-4.45-24.55-2.21-36.72-4.16c-5.43-.87-11.19-1.91-15.78-5.15-4.21-2.98-6.52-7.74-7.97-12.56-1.66-5.51-2.31-11.3-2.83-17-.55-5.99-.72-12.01-.45-18.02.5-11.15,2.48-22.3,6.5-32.73,6.86-17.79,19.49-32.29,34.52-43.75,8.39-6.4,17.58-11.42,27.51-14.99,9.86-3.55,20.14-5.76,30.45-7.52,5.21-.89,10.44-1.66,15.67-2.41.62-.09,1.94-.23,2.33-.8.37-.55-.33-.54-.79-.47-21.57,3.1-43.57,6.59-63.11,16.78-9.14,4.76-17.5,11.04-25.05,18.03-7,6.48-13.25,13.82-18.19,22.01-11.63,19.3-14.88,42.38-12.88,64.57.53,5.86,1.19,11.81,2.92,17.46,1.46,4.77,3.8,9.46,7.93,12.45,4.58,3.32,10.43,4.43,15.89,5.32,6.2,1.02,12.46,1.75,18.71,2.43,12.71,1.37,25.45,2.34,38.15,3.83s24.68,3.93,37.02,6.04,24.66,3.72,37.12,4.47c10.73.65,21.61,1.22,32.32.04s20.96-4.19,29.57-10.53c8.32-6.11,14.56-14.76,18.73-24.14,4.86-10.93,7.09-22.86,8.38-34.68,1.24-11.41,1.37-23.1-1.13-34.37-2.41-10.81-7.44-20.66-14.6-29.09s-15.81-15.38-25.19-20.99c-10.27-6.14-21.41-10.81-32.6-14.99-5.62-2.1-11.35-3.99-17.23-5.2s-12.28-1.64-18.48-1.37-12.19,1.06-18.25,1.93c-.62.09-1.94.23-2.33.8-.37.55.33.54.79.47Z"/>
          <path class="cls-1" d="M530.72-64.13c9.49-1.19,19.01-1.93,28.42.28,8.78,2.06,17.35,5.62,25.44,9.56,14.67,7.14,28.81,18.22,35.66,33.44,3.61,8.03,4.81,16.87,4.44,25.61s-2.02,17.57-4.63,25.92c-2.51,8.05-6.33,15.81-11.93,22.17-5.33,6.05-12.06,10.37-19.83,12.55s-16.03,2.53-24.1,2.58c-8.96.05-17.89-.27-26.8-1.17s-18.25-2.58-27.39-3.76c-9.6-1.24-19.27-1.93-28.92-2.68-4.74-.37-9.49-.74-14.22-1.2s-9.41-.82-14-1.81c-4.04-.87-7.83-2.49-10.16-6.07s-3.1-7.79-3.69-11.79c-2.54-17.16-.99-35.81,6.22-51.71,6.12-13.5,16.28-24.54,28.17-33.24,13.21-9.66,29.01-14.27,44.97-16.91,4.11-.68,8.24-1.25,12.37-1.77.71-.09,1.83-.48,1.94-1.33s-.95-1.09-1.57-1.01c-16.89,2.14-34.09,5.09-49.34,13.04-7.23,3.77-13.82,8.63-19.85,14.09-5.65,5.12-10.69,10.91-14.81,17.34-9.39,14.65-13.04,32.14-12.61,49.39.12,4.65.43,9.34,1.18,13.94.66,4.05,1.69,8.33,4.04,11.76s6.4,5.38,10.47,6.33c4.64,1.09,9.46,1.5,14.19,1.97,9.96,1,19.95,1.6,29.93,2.47,4.99.44,9.97.94,14.93,1.59s9.47,1.45,14.22,2.13c9.6,1.38,19.27,2.37,28.97,2.64,8.51.24,17.14.35,25.61-.61,8.41-.95,16.75-3.18,23.87-7.9s12.21-10.94,16.12-18.05c4.45-8.1,7.01-17.13,8.66-26.18s2.24-17.98.76-26.89c-2.89-17.32-14.98-31.44-29.39-40.79-7.56-4.91-15.89-8.61-24.29-11.85-9.11-3.51-18.36-5.78-28.17-5.63-4.85.07-9.67.6-14.48,1.2-.71.09-1.83.48-1.94,1.33s.95,1.09,1.57,1.01Z"/>
          <path class="cls-1" d="M531.26-52.8c6.77-.64,13.51-.72,20.14.93,6.07,1.51,11.99,4.02,17.48,6.99,10.17,5.51,19.31,14.58,23.14,25.69,4.19,12.14.87,26-4.94,37.06-2.75,5.22-6.32,10.04-10.8,13.9s-9.92,6.45-15.74,7.9-11.55,1.94-17.37,2.37c-6.47.48-12.97.54-19.45.2s-13.08-1.2-19.63-1.61c-6.9-.44-13.82-.66-20.72-1.01-3.41-.17-6.84-.34-10.24-.66-2.9-.27-6.17-.71-8.34-2.85-1.97-1.93-2.6-4.81-3.06-7.43-.58-3.28-.75-6.62-.79-9.95-.17-12.31,2.31-24.95,8.31-35.78,5.15-9.29,12.73-17.26,21.53-23.18,9.48-6.38,20.51-9.74,31.72-11.48,2.91-.45,5.83-.8,8.77-1.09.59-.06,1.88-.44,1.98-1.17.1-.78-1-.77-1.49-.72-12.2,1.19-24.5,3.59-35.55,9.09-10.24,5.09-19.39,12.82-26.1,22.08-7.19,9.93-11.14,21.74-12.27,33.89-.63,6.75-.74,13.94.7,20.6.57,2.65,1.53,5.41,3.77,7.11,2.47,1.88,5.62,2.41,8.63,2.71,7.12.73,14.31.9,21.45,1.22s14.45.75,21.65,1.49c13.08,1.35,26.4,1.18,39.43-.7,6.2-.89,12.37-2.41,17.96-5.3s10.08-6.93,13.83-11.71,6.81-10.75,8.91-16.74,3.54-12.9,3.19-19.57c-.66-12.71-8.63-24.23-18.68-31.62-5.03-3.7-10.69-6.51-16.49-8.79-6.39-2.52-12.99-4.13-19.88-4.27-3.52-.07-7.04.17-10.55.5-.59.06-1.88.44-1.98,1.17-.1.78,1,.77,1.49.72Z"/>
          <path class="cls-1" d="M526.4,16.09c-4.55,1.2-9.19,2.11-13.9,2.34-5.16.25-10.33.37-15.49.55-2.69.09-5.39.2-8.08.28-1.94.06-4.1,0-4.96-2.07-.72-1.75-.55-3.91-.53-5.76s.12-3.66.3-5.49c1.34-13.67,7.5-26.95,18.17-35.81,10.75-8.93,25.85-13.13,39.62-10.18,7.51,1.61,14.41,5.36,18.42,12.07,3.42,5.71,4.99,12.57,2.63,18.97-2.22,6.02-6.99,10.69-12.14,14.32-5.78,4.07-12.35,7.07-19.05,9.28-1.65.54-3.31,1.04-4.98,1.49-.67.18-1.65.8-1.43,1.63s1.4.87,2.05.7c7.48-2.02,14.79-4.89,21.47-8.84,6.14-3.64,12.01-8.29,15.66-14.54s3.98-13.09,1.44-19.58c-1.45-3.71-3.56-7.31-6.47-10.06s-6.61-4.85-10.46-6.26c-14.7-5.4-32.23-2.15-45.05,6.46s-20.38,21.86-22.85,36.45c-.65,3.88-.93,7.82-.84,11.75.05,2.04.09,4.39,1.54,5.99,1.53,1.68,3.85,1.98,6,1.98,5.43,0,10.89-.36,16.31-.55s10.36-.24,15.48-1.11c2.61-.44,5.19-1.01,7.75-1.69.67-.18,1.65-.8,1.43-1.63s-1.4-.87-2.05-.7Z"/>
        </g>
        <g>
          <path class="cls-1" d="M277.58,57.95c-1.06,20.13,3.35,40.14,6.03,59.98,1.09,8.08.56,18.01-6.75,23.2-6.92,4.92-16.59,3.55-24.51,2.84-40.14-3.58-80.36-9.97-120.76-7.2-19.85,1.36-39.33,5.23-58.03,12.09-18.68,6.86-36.69,15.71-54.75,24.03-8.49,3.91-16.96,8.34-26.14,10.39s-19.04.09-28.21-2.07c-13.8-3.24-28.23-6.47-40.5-13.86-30.31-18.23-32.93-58.81-25.83-89.94,7.49-32.88,25.49-62.61,49.3-86.26C-27.09-34.14,4.5-52.03,38.5-63.2c9.33-3.07,18.82-5.36,28.29-7.94s17.9-5.97,26.88-8.86c9.12-2.93,18.33-4.99,27.95-5.13,9.01-.13,18,.86,26.82,2.68,34.43,7.13,64.97,25.92,98.79,35.03,8.23,2.22,16.9,3.51,24.53,7.5s12.41,10.49,14.41,18.61,1.41,15.87.36,23.69c-1.23,9.12-3.26,18.12-4.99,27.16-1.79,9.39-3.39,18.85-3.95,28.4-.09,1.48,3.41.82,3.48-.41,1.15-19.61,6.99-38.45,9.24-57.89.9-7.76,1.15-15.91-1.09-23.47s-7.48-14.05-14.71-17.83c-7.83-4.1-16.73-5.45-25.17-7.73s-17.36-5.38-25.83-8.68c-16.72-6.51-33.04-14.07-50.02-19.91s-34.56-9.73-52.51-9.18c-19.62.6-37.02,9.5-55.68,14.43-9.73,2.57-19.43,5.03-28.98,8.23s-19.01,6.89-28.18,11.15c-15.99,7.43-31.11,16.59-44.98,27.48C-63.36-5.02-85.22,22.18-97.78,53.62c-6.87,17.19-11.2,35.78-11.01,54.36.17,17.19,4.57,35.2,15.6,48.76,8.54,10.51,20.67,16.51,33.34,20.56,7.61,2.43,15.41,4.33,23.2,6.13,8.93,2.06,18.32,3.83,27.47,2.19s18.14-5.92,26.73-9.93c9.14-4.27,18.37-8.37,27.53-12.59,18.72-8.62,37.67-16.56,57.96-20.63,41.1-8.24,83.42-3.04,124.65,1.28,10.01,1.05,20.06,2.3,30.11,2.84,7.91.42,16.66-.2,22.92-5.62s7.52-14.16,6.63-21.9c-1.18-10.25-3.09-20.42-4.44-30.66s-2.4-20.54-1.85-30.85c.08-1.48-3.42-.82-3.48.41Z"/>
          <path class="cls-1" d="M-5.96-39.4c15.09-8.51,31.2-15.02,47.78-19.98,8.04-2.41,16.19-4.3,24.13-7.05s15.3-5.66,23.22-7.65c31.05-7.78,62.41,5.66,90.77,16.93,7.15,2.84,14.32,5.64,21.61,8.11s14.81,4.38,22.34,6.22,14.8,4.06,20,9.7c4.64,5.04,6.67,11.7,7.27,18.41.63,7.05-.21,14.2-1.25,21.17-1.33,8.85-3.05,17.64-4.34,26.5-1.3,8.97-2.1,17.96-1.67,27.03s1.5,17.77,2.67,26.61c.58,4.37,1.18,8.74,1.73,13.12s1.15,8.45.59,12.72c-.49,3.71-1.76,7.4-4.35,10.18-2.39,2.57-5.7,3.9-9.11,4.46-3.65.6-7.39.45-11.07.19-4.49-.32-8.98-.71-13.47-1.11-9.02-.82-18.03-1.74-27.05-2.58-34.88-3.28-70.72-5.59-104.99,3.38-16.86,4.41-32.74,11.81-48.58,18.94-7.58,3.41-15.17,6.83-22.79,10.13s-15.3,5.93-23.67,5.34-15.83-2.73-23.55-4.73c-6.04-1.57-12.05-3.31-17.81-5.72-10.96-4.57-19.91-11.98-25.73-22.41-15.54-27.9-9.06-63.58,3.91-91.13C-67.04,11.13-47.14-11.14-23.7-28.02c5.71-4.11,11.63-7.91,17.74-11.38,2.05-1.17.19-2.93-1.52-1.96C-33.24-26.73-56-6.53-72.25,18.35s-27.7,58.52-22.06,89.43c2.49,13.62,8.52,27.13,19.23,36.24,9.36,7.95,21.38,11.78,33.07,14.83,7.67,2,15.47,4.12,23.37,4.86,8.52.8,16.39-1.14,24.25-4.31s15.55-6.79,23.27-10.25c8.2-3.66,16.35-7.44,24.64-10.89s16.86-6.63,25.62-8.94,17.62-3.86,26.58-4.83c18.22-1.97,36.59-1.56,54.85-.3s36.93,3.43,55.41,4.97c7.54.63,15.68,1.79,23.06-.49s11.92-8.03,13.2-15.47c.68-3.93.33-7.84-.15-11.77-.56-4.6-1.18-9.2-1.79-13.79-1.22-9.17-2.42-18.36-2.87-27.6-.91-18.56,3.5-36.61,6.15-54.86,1.93-13.27,3.25-29.64-6.84-40.16-5.2-5.42-12.38-7.96-19.49-9.77-7.78-1.98-15.52-3.82-23.14-6.38-29.72-9.98-58.17-25.82-90.09-27.46-8.38-.43-16.71.1-24.89,2.09s-15.91,5.06-23.79,7.79-16.5,4.75-24.73,7.23-16.92,5.53-25.13,8.95S-.05-45.55-7.47-41.36c-2.06,1.16-.19,2.92,1.52,1.96Z"/>
          <path class="cls-1" d="M-6.33-35.55c12.92-7.53,26.81-13.31,41.07-17.74,6.88-2.13,13.84-3.91,20.62-6.35s13.16-5.02,19.99-6.72c13.54-3.37,28.05-1.78,41.45,1.48s25.45,8.09,37.96,12.74c6.3,2.34,12.63,4.63,19.05,6.6s13.08,3.26,19.58,5.07,12.43,4.6,16.41,10.06c3.45,4.73,4.94,10.56,5.41,16.33.51,6.19-.04,12.43-.78,18.59-.92,7.61-2.16,15.19-3.08,22.8s-1.49,15.31-1.17,23.01,1.14,15.42,1.99,23.11c.42,3.82.87,7.63,1.27,11.46s.9,7.36.59,11.05c-.51,6.19-3.48,12.64-9.91,14.43-3.03.84-6.29.8-9.41.67-3.74-.16-7.47-.45-11.2-.73-7.8-.59-15.58-1.3-23.37-1.98-30.23-2.62-61.1-4.68-90.89,2.48-14.57,3.5-28.3,9.52-42,15.5-6.58,2.87-13.19,5.69-19.8,8.5s-13.19,5.11-20.46,4.55c-6.82-.52-13.56-2.42-20.16-4.16-5.26-1.39-10.52-2.94-15.52-5.12-9.52-4.15-17.26-10.74-22.31-19.89-13.36-24.21-9.22-54.36,1.78-78.59C-58.79,8.78-41.71-10.69-21.61-25.5c4.91-3.62,10.02-6.96,15.28-10.05.63-.37.37-.67-.21-.77-.77-.13-1.81.28-2.46.66C-31.07-22.7-50.63-4.94-64.29,16.82c-14.2,22.63-22.65,50.98-16.43,77.58,2.7,11.56,8.23,22.93,17.73,30.39,8.44,6.62,19.03,9.73,29.26,12.34,6.72,1.71,13.58,3.57,20.55,3.76s14.2-2.1,20.83-4.84c13.9-5.75,27.51-12.23,41.55-17.66,14.66-5.67,29.79-9.1,45.45-10.37,15.84-1.28,31.76-.67,47.59.47,15.98,1.15,31.91,2.89,47.91,3.85,6.17.37,12.72.43,18.38-2.42s8.5-8.68,9.02-14.91c.3-3.69-.21-7.39-.59-11.05-.42-4.01-.89-8.02-1.33-12.03-.86-7.78-1.67-15.57-1.96-23.39-.58-15.85,2.8-31.42,4.53-47.1,1.29-11.7,1.89-25.55-6.6-34.88-4.44-4.88-10.7-7.2-16.94-8.8-6.8-1.75-13.61-3.23-20.31-5.37-26.09-8.33-51.26-21.47-79.21-21.96-7.3-.13-14.49.63-21.55,2.52s-13.63,4.56-20.39,6.97-14.19,4.25-21.25,6.51-14.5,5.01-21.53,8.08c-6.65,2.9-13.13,6.18-19.4,9.84-.63.37-.37.67.21.77.77.13,1.81-.28,2.46-.66Z"/>
          <path class="cls-1" d="M-7.53-30.34c10.52-6.42,21.85-11.41,33.52-15.34,5.79-1.95,11.68-3.55,17.41-5.7s11.22-4.46,17.05-6.03c22.68-6.1,46.08,2.7,67.36,9.95,5.46,1.86,10.93,3.67,16.48,5.24s11.18,2.49,16.67,4.11c5.16,1.53,9.83,4.07,13.13,8.42,3.05,4.02,4.52,9,5.16,13.95,1.5,11.59-.69,23.5-1.82,35.03-.63,6.44-1.11,12.91-.94,19.38s.67,12.88,1.23,19.31,1.36,12.9,1.5,19.36c.11,5.1-1.05,11.28-5.52,14.41-4.2,2.94-10.16,2.26-14.99,2.04-6.65-.3-13.3-.78-19.94-1.27-25.54-1.9-51.57-4.11-76.92.85-12.59,2.46-24.44,7.03-36.25,11.93-5.58,2.32-11.2,4.54-16.78,6.84s-11.12,4.67-17.1,4.58-11.64-1.74-17.26-3.21c-4.44-1.16-8.85-2.44-13.09-4.21-8.15-3.4-14.91-8.82-19.42-16.49-11.83-20.08-9.94-45.09-1.11-65.87C-50.98,7.63-36.89-8.81-20.36-21.53c4.11-3.16,8.4-6.09,12.82-8.81.51-.31,1-.91.32-1.32s-1.87-.02-2.46.34C-28.11-20-44.5-4.8-55.71,13.81s-17.87,42.95-11.85,65.27c2.62,9.74,7.41,19.4,15.48,25.75,7.21,5.67,16.16,8.4,24.91,10.66,5.85,1.51,11.85,3.15,17.94,3.15s11.95-2.11,17.54-4.37c11.83-4.79,23.54-10.03,35.59-14.25,25.18-8.84,51.97-8.44,78.26-6.68,6.66.45,13.31.97,19.96,1.45s13.3,1.02,19.95,1.08c5.28.04,11.13-.63,15.24-4.28s5.34-9.03,5.36-14.22c.04-6.44-.87-12.96-1.43-19.37-.58-6.74-1.13-13.49-1.31-20.25-.35-13.42,2.15-26.69,2.99-40.05.63-9.91.49-21.18-6.08-29.29-3.53-4.36-8.48-6.79-13.77-8.35-5.62-1.66-11.43-2.62-17.08-4.23-22.51-6.41-44.24-16.98-68.1-17.07-6.21-.02-12.36.64-18.35,2.29s-11.73,4.04-17.53,6.22-11.9,3.82-17.82,5.84-11.85,4.33-17.58,6.96-11.06,5.43-16.31,8.64c-.51.31-.99.91-.32,1.32s1.87.02,2.46-.34Z"/>
          <path class="cls-1" d="M-8.47-25.54C-.19-30.93,8.76-35.15,18.01-38.6c4.66-1.74,9.41-3.18,14.03-5.03s8.87-3.73,13.48-5.11c18.68-5.57,38.24.78,56.19,6.06,4.58,1.35,9.18,2.67,13.83,3.78s9.16,1.67,13.51,3.26,7.65,4.08,10.18,7.73c2.28,3.31,3.54,7.22,4.23,11.15,1.68,9.53.54,19.41-.09,28.99-.34,5.15-.64,10.31-.59,15.48s.35,10.51.64,15.75.61,10.48.78,15.72c.14,4.47.15,9.31-2.32,13.24s-6.36,4.56-10.56,4.63c-5.14.09-10.31-.17-15.44-.43-20.69-1.04-41.56-2.93-62.19,0-10.19,1.45-19.87,4.4-29.48,8.03-4.71,1.78-9.42,3.56-14.14,5.3-4.48,1.65-9,3.69-13.8,4.16s-9.57-.94-14.1-2.12c-3.75-.98-7.49-2.03-11.09-3.48-6.71-2.72-12.34-6.99-16.29-13.11-5.15-7.99-7.98-17.71-8.5-27.17-.49-8.94,1.39-17.83,4.59-26.15C-43.03,6.24-31.92-7.33-18.84-17.98c3.32-2.7,6.78-5.22,10.36-7.56.5-.33,1-.93.31-1.34-.65-.39-1.89-.05-2.46.33C-25.39-16.88-38.56-4.22-47.28,11.25c-4.16,7.38-7.31,15.38-8.95,23.7-1.91,9.72-1.23,19.89,1.89,29.29,2.66,8.02,6.89,15.96,13.8,21.08,6.17,4.58,13.63,6.75,20.97,8.66,4.79,1.24,9.73,2.45,14.72,2.09s9.81-2.27,14.47-4.03,9.64-3.57,14.44-5.4,9.84-3.69,14.9-5.13c20.74-5.91,42.72-4.74,63.99-3.56,5.36.3,10.72.62,16.08.83,4.96.19,10.1.6,15.04-.05,4.39-.57,8.6-2.39,11.03-6.26s2.73-8.4,2.61-12.8c-.29-10.9-1.33-21.77-1.46-32.68s1.38-21.71,1.49-32.59c.08-8.36-.6-17.5-5.83-24.41-2.71-3.59-6.46-6.06-10.69-7.52-4.54-1.56-9.33-2.23-13.99-3.35-18.99-4.58-37.48-12.57-57.36-11.86-5.1.18-10.14.87-15.03,2.34s-9.48,3.48-14.17,5.35-9.66,3.39-14.46,5.19-9.52,3.81-14.11,6.09-8.63,4.55-12.73,7.21c-.5.33-.99.93-.31,1.34.65.39,1.88.05,2.46-.33Z"/>
          <path class="cls-1" d="M-9.12-21.05c6.05-4.34,12.69-7.81,19.53-10.72,3.43-1.46,6.94-2.74,10.35-4.25s6.82-3.12,10.36-4.32c14.51-4.93,30.23-1.09,44.65,2.16,3.73.84,7.47,1.66,11.24,2.34s7.22,1.27,10.47,3c5.63,2.99,8.9,8.79,10.4,14.8,1.77,7.09,1.63,14.55,1.48,21.8-.17,8.13-.26,16.23-.07,24.37.09,4.01.18,8.02.18,12.03,0,3.66.16,7.43-.51,11.04-.57,3.08-1.9,6.67-4.93,8.11s-6.83,1.11-10,1.16c-16.04.25-32.06-1.28-48.09-.07-7.98.6-15.78,1.95-23.44,4.28-3.71,1.13-7.37,2.4-11.07,3.55s-7.24,2.46-10.95,3.2-7.3.03-10.9-.9c-3.04-.78-6.07-1.64-8.99-2.78-5.35-2.1-9.91-5.37-13.26-10.07-4.18-5.89-7.15-13-8.3-20.13s-.2-13.64,1.89-20.19c4-12.54,12.21-23.4,21.99-32.05,2.54-2.25,5.2-4.36,7.95-6.35.61-.44.34-.96-.29-1.1-.81-.18-1.81.19-2.46.66C-23.11-13.35-33.03-2.98-39.18,9.56c-2.91,5.93-5.02,12.44-5.6,19.04-.66,7.5.94,14.98,4.05,21.8,2.73,5.98,6.35,11.77,11.9,15.49,5.18,3.47,11.34,5.19,17.34,6.65,3.8.92,7.59,1.35,11.46.62s7.67-2.08,11.44-3.25c7.83-2.43,15.51-5.27,23.64-6.58,16.58-2.68,33.45-1.33,50.16-1.07,4.18.06,8.37.1,12.55-.16,3.4-.21,6.93-.75,9.77-2.77,6.01-4.27,5.41-12.91,5.42-19.4.01-8.52-.45-17.04-.36-25.55s.69-16.74.04-25.08c-.5-6.36-1.84-12.93-5.78-18.11-2.01-2.64-4.68-4.82-7.71-6.18-3.44-1.54-7.18-2.09-10.85-2.77-15.49-2.87-30.72-7.92-46.68-6.35-4.03.4-7.98,1.21-11.81,2.53s-7.21,2.93-10.77,4.5-7.36,2.94-10.99,4.52-7.05,3.23-10.44,5.11-6.44,3.8-9.47,5.98c-.61.44-.33.96.29,1.1.81.18,1.81-.19,2.46-.66Z"/>
          <path class="cls-1" d="M-10.03-16.14c3.93-3.36,8.33-6.15,12.88-8.58,2.37-1.27,4.8-2.44,7.19-3.69s4.62-2.42,7.03-3.41c10.31-4.23,21.84-3.5,32.66-2.25,5.14.59,10.52.82,14.96,3.76,3.52,2.33,6.03,5.85,7.56,9.75,1.84,4.66,2.5,9.7,2.84,14.67.4,5.75.35,11.52.34,17.28s-.13,11.25-.56,16.87c-.33,4.33-.28,10.89-4.23,13.76-1.81,1.32-4.48,1.43-6.62,1.66-2.75.3-5.52.45-8.29.55-5.61.21-11.23.18-16.85.27s-11.45.26-17.13.91-10.77,1.98-16.14,2.97c-2.62.48-5.24,1.03-7.91.59-2.47-.41-4.93-1.19-7.28-2.02-4.11-1.46-7.79-3.72-10.63-7.06-3.17-3.73-5.98-7.99-7.65-12.61s-1.89-9.04-1.09-13.69c1.61-9.29,6.84-17.58,13.25-24.34,1.79-1.89,3.68-3.67,5.65-5.37.6-.52.3-1.16-.37-1.37-.82-.25-1.84.13-2.46.66C-20.63-10.11-27.44-1.83-30.86,7.99c-1.53,4.39-2.38,9.16-1.94,13.81.49,5.09,2.65,9.84,5.4,14.09s5.69,7.9,9.9,10.42,9.22,4.14,13.96,4.81c2.88.41,5.7-.07,8.53-.59s5.7-1.08,8.54-1.67c5.89-1.23,11.79-1.82,17.8-2.06s12.12-.2,18.17-.3,11.67-.16,17.37-1.15c2.48-.43,4.99-1.14,6.9-2.85,1.81-1.61,2.87-3.88,3.49-6.19.69-2.59.86-5.31,1.07-7.98.23-2.99.38-5.98.47-8.98.18-6.09.17-12.19.07-18.28s-.3-11.68-1.57-17.36c-.97-4.32-2.65-8.61-5.55-12.01-3.27-3.84-7.73-6.08-12.67-6.9-5.63-.94-11.43-1.53-17.13-1.85s-11.75-.12-17.52,1.02-11,3.46-16.22,6.2S-1.86-24.76-6.57-21.6c-2.18,1.46-4.28,3.05-6.28,4.75-.6.51-.29,1.16.37,1.37.82.26,1.84-.13,2.46-.66Z"/>
          <path class="cls-1" d="M41.09,9.94c-.46,3.59-1.03,7.22-2.03,10.71-.45,1.59-1.05,3.21-2.12,4.5s-2.61,2.09-4.23,2.62c-7.09,2.31-15.01,2.36-22.32,1.27-11.93-1.77-27.88-8.35-28.37-22.49-.22-6.4,2.92-12.54,6.59-17.58,3.07-4.22,7.02-7.76,11.22-10.83,4.61-3.38,9.65-6.32,15.08-8.18,4.71-1.61,9.8-2.17,14.44-.04,5.3,2.44,8.5,7.55,10.23,12.94,2.21,6.87,2.48,14.32,2.03,21.47-.12,1.88-.3,3.75-.52,5.61-.12.97,3.33.32,3.44-.58.97-7.9,1.2-16.1-.52-23.92-1.32-5.97-4.03-12.12-9.31-15.59-4.92-3.23-10.78-3.37-16.37-2.15-6.18,1.36-12,4.2-17.32,7.58-4.9,3.12-9.59,6.83-13.43,11.2-4.35,4.95-8.1,11.26-8.9,17.9-1.81,15.16,13.9,23.23,26.53,25.68,8.04,1.56,16.44,1.6,24.44-.18,3.5-.78,7.49-1.82,10.06-4.49s3.16-6.45,3.82-9.85c.4-2.05.72-4.11.99-6.18.12-.96-3.33-.32-3.44.58Z"/>
        </g>
        <g>
          <path class="cls-1" d="M238.7,159.76c8.27,1.16,16.53,2.44,24.76,3.83,7.53,1.27,15.16,2.39,22.55,4.31,6.69,1.74,13.25,4.37,18.43,9.09s8.68,10.99,11.52,17.34c12.42,27.72,18.74,58.51,19.17,88.83.19,13.31-.15,26.49,1.62,39.73,1.52,11.4,4.32,22.61,8.54,33.32,4.47,11.31,10.43,21.97,17.15,32.09,3.53,5.32,7.11,10.78,11.41,15.51s9.15,8.47,14.51,11.67c10.65,6.36,22.56,10.35,33.08,16.93s19.75,15.71,26.31,26.36,10.36,22.42,10.74,34.71c.41,13.18-3.18,26.14-9.08,37.84-12.29,24.38-33.52,43.44-55.61,58.86s-48.55,28.3-75.16,37.09c-58.35,19.26-120.8,21.17-181.42,14.01-31.58-3.73-63-9.66-93.86-17.34-29.15-7.26-58.07-16.77-84.17-31.9-11.87-6.89-23.46-15.02-31.77-26.11-8.73-11.65-12.69-25.98-15.15-40.12-4.35-25-6.93-50.43-7.83-75.79-1.82-51.33,3.88-104.12,24.48-151.6,20.32-46.85,56.22-86.52,100.68-111.66,21.99-12.43,45.95-21.21,70.67-26.33,29.92-6.2,60.77-7.22,91.21-5.45,15.79.92,31.53,2.61,47.2,4.78.91.13,4.04-1.38,2.2-1.63-58.93-8.15-120.53-9.46-177.16,11.24-47.95,17.53-90.26,50.48-118.51,93.09-28.86,43.54-41.2,95.65-43.94,147.29-1.41,26.48-.36,53.08,2.42,79.44,1.35,12.87,3,25.75,5.28,38.49,2.5,13.99,6.57,27.99,15.2,39.51,8.72,11.63,21,20,33.5,27.1,13.03,7.4,26.77,13.48,40.86,18.58,29.1,10.53,59.6,17.25,89.97,22.9,62.43,11.62,127.26,16.03,189.92,3.49,54.03-10.81,108.01-34.1,147.76-73.1,18.7-18.35,34.93-42.27,35.78-69.29.79-25.36-13.35-49.19-33.84-63.48-10.47-7.3-22.65-11.48-33.77-17.62-5.51-3.04-10.71-6.63-15.18-11.08-5.16-5.12-9.25-11.31-13.25-17.34-13.54-20.38-22.88-42.6-25.9-66.99-1.7-13.73-1.1-27.41-1.48-41.19-.44-15.91-2.54-31.79-6.23-47.27-3.49-14.64-8.11-29.61-15.03-43.02-3.04-5.9-6.94-11.49-12.37-15.43s-11.84-6.1-18.29-7.6c-15-3.51-30.49-5.6-45.74-7.73-.91-.13-4.04,1.38-2.2,1.63Z"/>
          <path class="cls-1" d="M-36.85,262.62c31.27-37.87,73.6-64.73,121.51-75.92,29.05-6.78,59.35-8.08,89.05-6.4,14.72.83,29.4,2.42,43.99,4.5,14.61,2.08,29.34,4.32,43.74,7.58,6.05,1.37,12.1,3.24,17.25,6.81,5.58,3.87,9.42,9.68,12.35,15.71,5.93,12.19,10.12,25.45,13.26,38.61,3.31,13.84,5.25,28.01,5.77,42.23.46,12.63-.1,25.18,1.4,37.76,2.58,21.65,10.43,41.61,22.12,59.94,6.43,10.08,13.19,19.91,23.25,26.68,9.49,6.39,20.41,10.17,30.34,15.77,19.99,11.27,35.19,32.04,37.21,55.21,2.2,25.21-11.53,48.47-28.09,66.32-34.74,37.44-83.97,59.75-133.28,70.27-56.47,12.05-115.16,8.79-171.65-1.31-27.84-4.98-55.75-11.08-82.6-20.06-13.16-4.4-26.05-9.63-38.38-16.02-11.72-6.08-23.43-13.06-32.79-22.5-18.24-18.39-20.92-45.22-23.97-69.7-2.95-23.68-4.43-47.58-3.84-71.44,1.15-46.91,10.32-94.63,33.86-135.71,5.71-9.96,12.22-19.44,19.49-28.33,1.34-1.64-1.99-1.78-2.84-.75-30.67,37.45-46.39,84.22-51.77,131.87-2.71,24.04-2.95,48.33-1.45,72.47.74,12.01,1.92,23.98,3.47,35.91s3.12,24.44,6.46,36.21c3.64,12.82,10,24.17,19.83,33.26s21.49,15.84,33.29,21.78c25.2,12.69,52.48,20.63,79.87,26.99,58,13.46,118.07,21.35,177.58,15.04,51.48-5.46,102.94-22.03,144.67-53.32,19.83-14.87,38.85-33.32,49.09-56.29,4.88-10.95,7.49-22.84,6.59-34.85-.84-11.3-4.9-22.18-11.07-31.64-6.36-9.76-15-18.03-24.96-24.06-10.01-6.06-21.25-9.8-31.11-16.13-10.69-6.87-17.73-17.2-24.42-27.77-6.14-9.7-11.4-19.96-15.14-30.82-3.62-10.49-5.75-21.43-6.76-32.47-1.22-13.27-.37-26.59-1.27-39.87-.99-14.52-3.45-28.93-7.32-42.96-1.9-6.86-4.13-13.63-6.69-20.27-2.26-5.86-4.68-11.77-8.04-17.11s-7.69-9.66-13.24-12.58-11.61-4.42-17.67-5.64c-14.65-2.96-29.44-5.39-44.25-7.42-30.25-4.16-60.84-6.04-91.32-3.61-26.91,2.14-53.41,7.86-78.3,18.44-22.15,9.41-42.68,22.46-60.68,38.43-9.15,8.12-17.6,16.99-25.39,26.42-1.35,1.63,1.99,1.78,2.84.75Z"/>
          <path class="cls-1" d="M-35.06,280.51c28.96-34.92,68.38-59.71,112.76-69.56,26.88-5.97,55.1-6.95,82.51-5.13,13.83.92,27.61,2.58,41.31,4.7,13.22,2.05,26.57,4.21,39.59,7.33,5.78,1.39,11.59,3.35,16.32,7.07s7.92,8.94,10.45,14.29c5.49,11.61,9.41,24.14,12.29,36.63s4.71,26.36,5.04,39.72c.28,11.31.09,22.51,1.66,33.76,2.81,20.06,10.67,38.44,21.78,55.27,6.17,9.34,12.62,17.82,22.29,23.75,8.9,5.45,18.85,8.92,27.71,14.44,18.26,11.37,31.69,31.57,32.06,53.43.38,23.1-12.91,43.66-28.25,59.84-32.27,34.02-77.02,53.88-122.42,63.1-51.66,10.5-105.2,7.3-156.75-2.12-25.99-4.75-52.04-10.61-77.04-19.21-11.95-4.11-23.66-8.94-34.85-14.81s-21.57-12.18-30.18-20.88c-16.86-17.06-19.43-41.98-22.3-64.66s-4.12-43.62-3.59-65.5c1.04-43.37,9.65-87.39,31.49-125.32,5.3-9.21,11.38-17.94,18.13-26.15,1.41-1.72-1.87-2.44-2.94-1.14-28.46,34.62-43.14,77.96-48.14,122.09-2.52,22.23-2.73,44.7-1.29,67.01.7,10.84,1.77,21.66,3.19,32.43,1.5,11.42,2.99,23.05,6.18,34.14,3.37,11.74,9.16,22.12,18.04,30.57s19.71,14.84,30.57,20.44c23.17,11.97,48.33,19.51,73.6,25.59,53.62,12.88,109.34,20.45,164.47,14.9,46.7-4.7,93.63-19.19,131.7-47.28,18.43-13.6,35.96-30.69,46.21-51.44,4.99-10.1,8.03-21.28,7.7-32.6-.31-10.67-3.57-21.03-9.02-30.19-5.49-9.24-13.17-17.25-22.11-23.2-9.1-6.06-19.56-9.63-28.91-15.24-4.6-2.76-8.89-6.05-12.48-10.06-3.87-4.32-7.12-9.31-10.29-14.15-5.86-8.95-10.99-18.38-14.71-28.43s-5.75-19.56-6.87-29.7c-1.36-12.26-.65-24.55-1.44-36.83-.86-13.29-3.01-26.5-6.45-39.37-1.74-6.52-3.82-12.96-6.21-19.28-2.13-5.62-4.38-11.3-7.5-16.46s-6.94-9.21-12.03-12.08-10.37-4.3-15.85-5.51c-13.36-2.96-26.91-5.28-40.45-7.32-28.2-4.24-56.67-6.24-85.15-4.24-24.99,1.75-49.5,6.65-72.67,16.31-20.72,8.63-39.95,20.76-56.74,35.65-8.4,7.45-16.18,15.58-23.35,24.22-1.42,1.71,1.86,2.43,2.94,1.14Z"/>
          <path class="cls-1" d="M-33.37,298.06c26.54-31.84,62.66-54.55,103.31-63.23,12.23-2.61,24.72-3.79,37.19-4.43s25.67-.53,38.49.44c12.67.96,25.29,2.61,37.82,4.71,12.11,2.03,24.33,4.18,36.24,7.18,5.37,1.35,10.74,3.21,15.11,6.72s7.13,8.16,9.41,12.99c5.02,10.63,8.64,22.07,11.31,33.5s4.4,23.98,4.77,36.14c.31,10.17.19,20.25,1.63,30.35,2.69,18.78,10.22,35.9,20.74,51.59,2.91,4.34,5.87,8.79,9.51,12.56,3.35,3.47,7.24,6.35,11.39,8.79,8.39,4.93,17.67,8.24,25.74,13.74,16.27,11.07,27.82,29.91,27.54,49.91-.31,21.32-13,40.08-27.17,55.03-29.25,30.84-69.41,48.5-110.61,56.68-47.58,9.44-96.97,6.27-144.35-2.74-23.53-4.47-47.1-9.99-69.74-17.91-11.19-3.92-22.15-8.53-32.6-14.13-9.74-5.23-19.45-11.18-27.27-19.09-15.52-15.7-18.09-38.39-20.83-59.28-2.6-19.9-3.92-39.99-3.47-60.07.9-39.84,8.85-80.27,28.94-115.08,4.95-8.58,10.6-16.72,16.9-24.36,1.37-1.66-1.96-1.94-2.86-.85-26.24,31.79-39.94,71.5-44.57,112.09-2.33,20.37-2.49,40.96-1.16,61.41.67,10.16,1.71,20.3,3.09,30.39s2.86,21.2,5.92,31.37c3.25,10.84,8.82,20.4,17.17,28.09s18.19,13.55,28.18,18.71c21.13,10.9,44,17.93,67.02,23.61,49.12,12.12,100.19,19.18,150.79,14.3,42.4-4.09,85.36-16.88,119.91-42.45,16.79-12.43,32.66-28.22,42.34-46.92,4.76-9.2,7.87-19.38,7.88-29.8.01-9.84-2.67-19.39-7.42-27.99-4.72-8.53-11.42-15.94-19.31-21.66s-17.78-9.39-26.52-14.38c-4.27-2.44-8.29-5.3-11.71-8.85-3.8-3.93-6.88-8.61-9.9-13.15-5.51-8.27-10.35-17-13.9-26.29-3.36-8.8-5.48-18-6.59-27.34-1.32-11.07-.79-22.17-1.51-33.27-.81-12.25-2.84-24.42-6.04-36.27-1.6-5.94-3.5-11.79-5.68-17.54-1.94-5.12-4.01-10.28-6.83-14.99s-6.31-8.42-10.91-11.06-9.85-4.11-15.03-5.29c-12.44-2.82-25.01-5.19-37.6-7.22-25.6-4.11-51.34-5.95-77.24-4.4-22.91,1.37-45.3,5.57-66.59,14.3-18.88,7.74-36.38,18.65-51.76,32.06-7.93,6.91-15.26,14.49-21.99,22.57-1.37,1.65,1.95,1.93,2.86.85Z"/>
          <path class="cls-1" d="M-31.63,315.79c24.33-29.02,57.58-49.67,94.86-57.07,10.97-2.18,22.16-2.97,33.32-3.38,11.79-.44,23.55-.27,35.31.78s23.03,2.72,34.43,4.81,22.21,4.14,33.03,7.14c4.59,1.27,9.14,2.99,12.86,6.05,4.07,3.33,6.76,8.06,8.9,12.78,4.36,9.64,7.62,19.85,10,30.15s3.96,21.82,4.29,32.88c.28,9.32.38,18.55,1.92,27.78,2.85,17.09,10.23,32.56,20.04,46.73,2.7,3.9,5.45,7.78,8.96,11,3.09,2.83,6.54,5.18,10.2,7.23,7.88,4.41,16.39,7.66,23.63,13.15,14.58,11.05,24.19,28.99,22.66,47.52-1.59,19.34-13.85,35.95-26.81,49.55-26.32,27.63-63.02,42.73-100.01,49.55-43.27,7.97-88.06,4.67-130.97-3.92-21.23-4.25-42.48-9.48-62.84-16.9-9.92-3.61-19.62-7.83-28.88-12.91s-17.73-10.41-24.81-17.72c-13.97-14.43-16.41-35.18-18.95-54.23-2.39-17.93-3.6-36.03-3.2-54.12.8-36.29,8.19-73.07,26.6-104.71,4.54-7.8,9.71-15.19,15.47-22.14,1.38-1.67-1.94-2.05-2.88-.91-23.95,28.88-36.63,64.93-40.93,101.89-2.15,18.49-2.31,37.17-1.07,55.72.61,9.22,1.58,18.41,2.86,27.56s2.67,19.19,5.4,28.42c2.92,9.89,7.86,18.72,15.37,25.85,7.42,7.05,16.3,12.52,25.29,17.32,19.03,10.15,39.68,16.82,60.5,22.2,44.73,11.57,91.33,18.34,137.57,14.34,37.99-3.29,76.74-14.09,107.97-36.62,15.42-11.12,29.61-25.49,39.07-42.08,4.73-8.29,8.14-17.5,8.81-27.08.64-9.2-1.3-18.38-5.37-26.64s-9.74-15.13-16.74-20.77c-7.27-5.85-15.9-9.28-24.03-13.7-3.99-2.17-7.84-4.64-11.15-7.76-3.62-3.42-6.46-7.56-9.25-11.66-5.12-7.51-9.7-15.42-13.1-23.87-3.18-7.91-5.29-16.2-6.44-24.65-1.36-9.93-1.01-19.9-1.66-29.87-.72-11.16-2.56-22.25-5.44-33.05-2.72-10.19-6.07-20.9-11.43-30.05-2.48-4.23-5.74-7.88-9.98-10.39s-8.83-3.84-13.48-4.97c-11.04-2.69-22.2-4.98-33.38-6.98s-23.42-3.7-35.23-4.62-23.64-.89-35.47-.38c-11.27.49-22.54,1.5-33.59,3.87-9.19,1.97-18.21,4.73-26.95,8.19-17.57,6.97-33.9,16.99-48.16,29.4-7.18,6.25-13.84,13.06-19.96,20.36-1.39,1.66,1.93,2.04,2.88.91Z"/>
          <path class="cls-1" d="M-29.71,333.07c21.89-25.92,52.22-44.72,85.81-50.69,4.93-.88,9.92-1.28,14.91-1.59,5.34-.33,10.68-.77,16.02-1.02,10.37-.49,20.83.28,31.13,1.38,10.49,1.12,20.9,2.89,31.23,5.03,9.87,2.04,19.92,4.07,29.54,7.07,4.26,1.33,8.44,3.22,11.66,6.39s5.39,7.24,7.19,11.35c3.89,8.86,6.86,18.17,8.99,27.61s3.43,19.39,3.72,29.22c.25,8.37.61,16.67,2.22,24.92,3.01,15.49,10.23,29.37,19.36,42.12,2.46,3.43,5.11,6.6,8.43,9.25,3.08,2.46,6.47,4.45,9.95,6.27,7.35,3.85,14.81,7.25,21.05,12.85,12.37,11.11,19.65,27.66,16.99,44.35s-14.15,32.1-25.89,44.25c-23.32,24.15-56.15,36.86-88.72,42.37-38.94,6.59-79,3.35-117.45-4.75-19.04-4.01-38.07-8.92-56.28-15.83-8.89-3.37-17.58-7.29-25.87-11.95s-15.84-9.57-22.2-16.21c-12.51-13.07-14.88-31.73-17.26-48.91-2.26-16.32-3.4-32.82-3.02-49.3.77-32.66,7.62-65.74,24.34-94.11,4.16-7.06,8.9-13.76,14.15-20.06.55-.66-.47-1.02-.95-1.05-.84-.05-1.76.31-2.29.96-21.89,26.22-33.48,59.1-37.27,92.76-1.87,16.64-1.95,33.46-.73,50.14.6,8.29,1.53,16.56,2.75,24.78s2.58,17.38,5.23,25.69c2.82,8.85,7.53,16.62,14.36,22.95s14.8,11.23,22.91,15.58c17.11,9.19,35.69,15.31,54.39,20.33,40.2,10.78,82.15,16.96,123.8,13.55,33.52-2.74,67.99-11.86,95.68-31.6,13.87-9.88,26.19-22.76,35.01-37.37,4.5-7.45,7.98-15.67,9.04-24.36s-.27-16.76-3.61-24.44-8.19-14.15-14.28-19.51c-6.29-5.54-13.76-8.97-21.11-12.83-3.62-1.9-7.17-3.97-10.31-6.62-3.43-2.89-6.07-6.38-8.64-10.03-4.79-6.82-9.11-13.99-12.4-21.67-3.06-7.15-5.15-14.67-6.34-22.35-1.4-8.97-1.22-17.96-1.84-26.99-.69-10.04-2.39-20.02-5.02-29.73-2.48-9.16-5.49-18.76-10.3-26.99-2.24-3.84-5.13-7.09-8.96-9.4s-8.07-3.56-12.31-4.66c-10.27-2.68-20.64-5.05-31.06-7.06-20.59-3.97-41.98-6.68-62.96-5.07-10.18.78-20.34.99-30.38,3.07-8.28,1.72-16.41,4.16-24.28,7.25-15.81,6.22-30.51,15.19-43.38,26.28-6.49,5.59-12.47,11.73-18,18.27-.55.65.47,1.02.95,1.05.84.05,1.75-.32,2.29-.96Z"/>
          <path class="cls-1" d="M-27.99,350.74c19.69-23.11,46.78-39.53,76.86-44.56,4.56-.76,9.17-.99,13.79-1.11,4.62-.12,9.24-.33,13.86-.53,9.35-.4,18.76.56,28.02,1.77,9.29,1.22,18.49,3.02,27.61,5.16,8.61,2.02,17.42,4,25.77,6.92,3.63,1.27,7.13,2.98,9.88,5.74,2.88,2.9,4.77,6.58,6.38,10.29,3.5,8.06,6.2,16.51,8.13,25.08s3.03,17.37,3.31,26.18c.23,7.33.89,14.65,2.52,21.81,3.13,13.77,10.04,26.67,18.73,37.73,4.49,5.71,10.63,9.29,16.98,12.58,6.63,3.44,12.89,7.04,18.11,12.48,10.49,10.93,15.62,26.18,12.03,41.11-1.85,7.69-5.59,14.77-9.99,21.29s-9.05,12.39-14.41,17.77c-20.55,20.63-49.32,30.95-77.6,35.31-34.4,5.3-69.68,2.15-103.51-5.36-17.06-3.79-34.07-8.45-50.33-14.9-7.86-3.12-15.55-6.71-22.86-10.96s-13.97-8.72-19.58-14.66c-11.03-11.69-13.35-28.21-15.56-43.5-2.09-14.45-3.17-29.08-2.85-43.69.64-29.21,6.91-58.76,21.98-84.06,3.75-6.3,8.03-12.28,12.75-17.89.54-.64-.46-.94-.92-.96-.8-.03-1.77.31-2.3.93-19.59,23.3-30.19,52.48-33.64,82.5-1.71,14.91-1.78,30-.63,44.96.57,7.35,1.43,14.68,2.55,21.96,1.18,7.66,2.41,15.43,4.82,22.81,2.56,7.87,6.77,14.81,12.8,20.5,5.98,5.64,13.08,10.14,20.24,14.12,15.29,8.49,31.93,14.21,48.71,18.95,35.45,10,72.5,15.69,109.38,13.13,29.28-2.03,59.6-9.37,84.1-26.13,12.55-8.59,23-19.8,31.24-32.56,4.25-6.59,7.82-13.79,9.41-21.52s1.06-15.23-1.44-22.45-6.42-13.18-11.49-18.38-11.59-8.99-18.23-12.43c-3.37-1.75-6.76-3.53-9.82-5.8s-5.71-5.09-7.99-8.23c-4.47-6.15-8.57-12.6-11.74-19.52-2.88-6.27-4.94-12.87-6.18-19.65-1.43-7.8-1.5-15.61-2.03-23.49-.61-9-2.13-17.94-4.47-26.65-1.2-4.48-2.62-8.89-4.25-13.23-1.5-3.99-3.08-8.03-5.25-11.71-1.95-3.3-4.42-6.08-7.68-8.13s-7-3.26-10.7-4.32c-8.92-2.57-17.94-4.89-27.01-6.89s-18.59-3.66-28-4.69c-4.64-.5-9.28-.95-13.94-1.17s-9.5-.01-14.27.21c-9.26.44-18.4.3-27.54,2.1-7.41,1.46-14.68,3.54-21.73,6.23-14.21,5.43-27.44,13.36-39.02,23.22-5.83,4.96-11.22,10.42-16.19,16.25-.55.64.47.94.92.96.81.03,1.77-.31,2.3-.93Z"/>
          <path class="cls-1" d="M-26.15,368.1c17.43-20.25,41.53-34.73,68.15-38.52,7.94-1.13,15.95-.88,23.93-.49s16.07.76,24.04,2.02c7.95,1.26,15.8,3.05,23.57,5.14,3.98,1.07,7.94,2.22,11.89,3.42,3.73,1.13,7.52,2.2,11.15,3.62,3.11,1.22,6.1,2.83,8.43,5.27,2.54,2.65,4.19,6.04,5.62,9.38,3.05,7.15,5.45,14.59,7.16,22.17s2.56,15.14,2.97,22.85c.35,6.34,1.15,12.67,2.77,18.82,1.52,5.77,3.78,11.3,6.62,16.54,1.57,2.9,3.31,5.71,5.15,8.44s3.68,5.47,5.92,7.86c4.43,4.71,10.27,7.45,15.84,10.54,5.74,3.18,10.88,7.1,14.98,12.26,3.95,4.96,6.91,10.75,8.34,16.94,1.57,6.82,1.07,13.84-1.08,20.48s-5.7,12.77-9.63,18.52c-3.65,5.35-7.55,10.52-12.18,15.07-17.77,17.49-42.66,25.77-66.9,29.05-30.11,4.07-60.86.98-90.3-6.03-15.08-3.59-30.11-8.02-44.4-14.06-6.83-2.88-13.49-6.18-19.82-10.04s-11.94-7.79-16.76-12.99c-9.66-10.42-11.89-25.05-13.94-38.59-1.92-12.68-2.88-25.52-2.6-38.34.57-25.66,6.33-51.48,19.71-73.6,3.35-5.54,7.15-10.8,11.34-15.73.38-.45-1.29-.29-1.38-.28-.7.12-1.57.35-2.05.92-17.39,20.49-26.91,46.12-29.96,72.64-1.49,12.95-1.52,26.06-.45,39.04.54,6.55,1.36,13.08,2.43,19.57s2.31,13.69,4.57,20.21c2.41,6.93,6.3,12.93,11.66,17.93s11.89,9.22,18.4,12.86c13.21,7.39,27.54,12.54,42.01,16.84,30.99,9.21,63.52,14.39,95.89,12.35,25.16-1.59,51.37-7.46,72.62-21.57,5.11-3.39,9.9-7.25,14.18-11.64,4.58-4.69,8.49-9.99,12.12-15.43,7.85-11.77,13.51-25.51,9.56-39.75-1.71-6.18-4.93-11.89-9.1-16.74-4.46-5.19-9.9-8.86-15.88-12.09s-11.5-6.21-15.61-11.44-7.77-11.04-10.72-17.03c-2.74-5.57-4.77-11.46-6.04-17.54-1.41-6.77-1.63-13.56-2.17-20.42-.63-7.91-2.05-15.75-4.17-23.4-1.07-3.85-2.32-7.65-3.73-11.39-1.34-3.54-2.75-7.14-4.72-10.38-1.84-3.03-4.25-5.54-7.33-7.31s-6.25-2.73-9.49-3.76c-7.86-2.5-15.77-4.84-23.77-6.81-7.95-1.96-16.04-3.63-24.18-4.54s-16.48-1.23-24.7-1.47c-7.72-.23-15.38.16-22.99,1.54-6.55,1.19-13.01,2.96-19.25,5.27-12.69,4.69-24.52,11.59-34.88,20.29-5.14,4.32-9.89,9.07-14.27,14.16-.39.45,1.29.29,1.38.28.7-.12,1.57-.36,2.05-.92Z"/>
          <path class="cls-1" d="M-24.67,386.67c14.99-17.19,35.77-29.41,58.52-32.5,6.68-.91,13.33-.76,20.03-.14s13.84,1.11,20.64,2.32c13.5,2.4,26.76,6.85,39.5,11.86,2.77,1.09,5.51,2.38,7.69,4.47s3.63,4.82,4.82,7.52c2.73,6.16,4.86,12.63,6.45,19.18s2.38,13.08,2.93,19.76c.45,5.44,1.31,10.85,2.88,16.08s3.63,9.75,6.21,14.26c2.81,4.92,6.01,10.12,10.18,14s9.32,6.11,14.04,9.05,8.81,6.87,11.95,11.5,5.29,9.86,6.05,15.4c.84,6.15-.4,12.36-2.7,18.07s-5.61,11.1-8.99,16.3c-2.78,4.28-6.06,8.23-9.81,11.69-15.13,13.96-35.94,20.15-55.98,22.57-25.5,3.08-51.47.37-76.3-5.85-12.89-3.23-25.68-7.29-37.87-12.59-5.86-2.55-11.57-5.43-17.01-8.78-5.27-3.25-10.5-6.87-14.8-11.36s-7.45-10.27-9.32-16.47c-1.66-5.48-2.69-11.17-3.62-16.82-1.77-10.73-2.68-21.6-2.5-32.48.37-22.18,5.43-44.39,17.08-63.45,2.93-4.8,6.29-9.34,9.95-13.61.55-.64.26-1.46-.48-1.77-.81-.34-1.9,0-2.46.66-15.18,17.68-23.82,39.78-26.58,62.79-1.35,11.23-1.35,22.58-.37,33.83.48,5.5,1.2,10.99,2.13,16.43,1.01,5.87,2.11,11.81,4.06,17.46,2.12,6.17,5.44,11.57,10.09,16.15s9.85,8.12,15.29,11.39c11.33,6.81,23.68,11.72,36.22,15.8,26.53,8.64,54.54,13.61,82.5,12.43,21-.88,42.95-5.03,61.06-16.21,9.11-5.62,16.67-12.94,22.46-21.95,6.75-10.51,13.2-22.23,11.43-35.18-1.55-11.27-8.79-21.63-18.3-27.71-4.75-3.04-10.05-5.3-14.27-9.11-2.26-2.05-4.01-4.58-5.73-7.08s-3.18-4.81-4.59-7.33c-2.65-4.75-4.73-9.79-6.12-15.05-1.48-5.6-2.05-11.29-2.52-17.05-.55-6.8-1.78-13.54-3.58-20.11s-3.97-13.22-7.21-19.16c-1.47-2.69-3.39-5.07-5.91-6.83s-5.18-2.81-7.93-3.84c-6.83-2.57-13.73-5-20.73-7.09-6.69-2-13.52-3.76-20.43-4.78s-13.97-1.62-20.94-2.17-13.49-.45-20.21.62c-5.67.9-11.25,2.28-16.67,4.19-11.12,3.92-21.5,9.83-30.6,17.34-4.51,3.72-8.69,7.83-12.53,12.24-.56.64-.26,1.46.48,1.77.82.35,1.9-.01,2.46-.66Z"/>
          <path class="cls-1" d="M-22.8,403.78c12.89-14.58,30.79-24.72,50.28-26.65,5.47-.54,10.88-.18,16.31.68s11.37,1.72,16.94,2.98c11.09,2.5,21.86,7.23,32.07,12.14,2.35,1.13,4.61,2.45,6.38,4.4s3,4.52,4.05,7c2.22,5.23,4.03,10.64,5.38,16.16,2.43,9.89,2.37,20.17,6.08,29.75,1.63,4.2,3.8,8.16,6.27,11.93,2.77,4.23,5.67,8.02,9.91,10.85,3.99,2.66,8.24,4.8,11.78,8.09s6.49,7.38,8.44,11.86c2.05,4.71,2.99,9.86,2.43,14.99s-2.4,10.01-4.59,14.63c-2.02,4.27-4.18,8.58-6.94,12.42-2.37,3.3-5.16,6.28-8.28,8.88-12.68,10.58-29.58,14.65-45.69,16.09-21.34,1.92-43-.88-63.55-6.72-10.63-3.02-21.13-6.77-31.1-11.56-9.37-4.5-18.95-10.08-26.08-17.77-7.09-7.65-9.36-17.9-11.17-27.88-1.63-9-2.49-18.16-2.38-27.32.23-18.7,4.76-37.52,14.8-53.43,2.57-4.07,5.47-7.93,8.64-11.55.54-.62-.47-.84-.9-.85-.78,0-1.78.3-2.31.9-13,14.85-20.62,33.44-22.9,52.97-1.09,9.34-1.06,18.81-.13,28.16.46,4.65,1.15,9.28,2.04,13.87.98,5.06,2.06,10.17,3.94,14.98,4.04,10.35,12.65,17.31,21.84,23.02s19.52,10.2,29.88,13.85c21.9,7.72,45.12,12.17,68.39,11.6,17.09-.42,34.93-3.23,50.05-11.62,7.34-4.07,13.92-9.58,18.69-16.53,2.74-3.99,4.95-8.43,6.97-12.82,2.24-4.85,4.03-9.98,4.35-15.35.61-10.14-4.31-20-11.79-26.67-3.64-3.24-8.02-5.32-11.97-8.09-4.34-3.05-7.33-7.37-10.1-11.83-5.13-8.28-7.89-17.29-8.91-26.94-.62-5.83-1.77-11.58-3.41-17.21s-3.42-11.18-6.29-16.09c-1.33-2.28-3.04-4.2-5.25-5.66s-4.47-2.43-6.77-3.48c-5.42-2.48-10.91-4.86-16.51-6.91-5.57-2.03-11.25-3.74-17.09-4.78s-11.52-2.14-17.31-2.79c-20.31-2.3-41.27,5.35-56.98,18.03-3.86,3.12-7.44,6.57-10.73,10.29-.55.62.47.84.9.85.78,0,1.77-.3,2.31-.9Z"/>
          <path class="cls-1" d="M-21.25,421.86c10.58-11.69,25.22-19.79,41.06-21.07,4.25-.34,8.5-.15,12.68.71,4.43.91,8.78,2.3,13.13,3.52,8.96,2.53,17.08,7.39,24.94,12.26,1.74,1.08,3.51,2.15,4.97,3.62,1.53,1.54,2.58,3.41,3.46,5.38,1.92,4.28,3.5,8.75,4.78,13.26s1.85,8.65,2.78,13c.8,3.76,1.99,7.42,3.63,10.9s3.73,6.83,6.01,9.98c2.43,3.37,5.39,5.7,8.81,7.99,6.76,4.53,12.1,10.81,14.19,18.82,2.26,8.68-.86,17.66-4.28,25.62-2.47,5.75-6.43,10.77-11.46,14.49-10.17,7.52-23.23,10.01-35.6,10.76-16.81,1.01-33.69-1.4-49.75-6.4-8.65-2.69-17.11-6.09-25.14-10.29-7.57-3.96-15.05-8.73-21-14.93-3.11-3.25-5.48-6.96-7.09-11.16-1.42-3.7-2.37-7.59-3.2-11.47-1.54-7.24-2.42-14.64-2.4-22.05.03-15.27,3.87-30.45,12.16-43.36,2.18-3.39,4.63-6.59,7.31-9.59,1.39-1.55-1.97-1.65-2.82-.7-10.86,12.13-17.58,27.21-19.51,43.37-.91,7.64-.82,15.4.08,23.04s2.41,16.1,5.58,23.37c3.61,8.29,10.58,14.21,17.92,19.19s15.95,9.18,24.48,12.54c17.35,6.82,35.84,10.78,54.52,10.79,13.26,0,27.18-1.55,39.22-7.46,5.85-2.87,11.13-6.79,15.18-11.93,2.04-2.59,3.7-5.46,4.97-8.51,1.7-4.08,3.31-8.3,4.29-12.62s1.18-9.15,0-13.62c-1.03-3.95-2.93-7.69-5.37-10.96s-5.49-5.95-8.88-8.25c-1.72-1.17-3.5-2.28-5.08-3.64-1.69-1.45-3.02-3.16-4.3-4.97-4.81-6.76-8.05-14.11-9.46-22.3-.82-4.73-1.86-9.38-3.34-13.95s-2.97-9.07-5.39-13.05c-2.28-3.76-6.2-5.87-9.85-8.09-4.14-2.52-8.33-4.95-12.71-7.04s-8.68-3.53-13.26-4.78-8.98-2.67-13.64-3.34c-16.39-2.34-33.7,3.89-46.53,13.91-3.21,2.51-6.2,5.29-8.94,8.31-1.4,1.55,1.97,1.65,2.82.7Z"/>
          <path class="cls-1" d="M-19.34,439.13c8.37-8.9,19.97-15.06,32.31-15.48,3.18-.11,6.42.12,9.51.9,3.32.83,6.43,2.22,9.49,3.74,3.24,1.6,6.27,3.32,9.1,5.59s5.4,4.76,7.95,7.29c1.12,1.12,2.28,2.22,3.32,3.42,1.25,1.45,2.15,3.06,2.92,4.81,1.5,3.38,2.85,6.85,4.06,10.35,1.12,3.24,1.91,6.58,3.15,9.78,1.17,3.01,2.69,5.87,4.46,8.57s3.64,5.29,6.11,7.39,4.94,4.02,6.99,6.52c4.49,5.48,6.93,12.21,6.61,19.31-.24,5.56-1.33,11.61-4.04,16.53-2.1,3.81-5.28,6.95-9.01,9.17-7.66,4.56-17.01,5.62-25.76,5.73-12.32.15-24.56-1.91-36.16-6.06-12.8-4.58-25.56-11.47-35.01-21.41-2.44-2.57-4.55-5.39-6.1-8.58-1.47-3.02-2.5-6.24-3.36-9.47-1.44-5.41-2.28-10.98-2.4-16.57-.25-11.98,3.06-23.89,9.77-33.85,1.83-2.71,3.88-5.26,6.1-7.67.55-.59-.48-.74-.87-.74-.76.01-1.78.3-2.32.87-8.78,9.54-14.51,21.46-15.84,34.4-.61,5.9-.37,11.87.61,17.72,1.07,6.39,2.8,13.09,6.14,18.68,3.62,6.04,9.23,10.88,14.91,14.93,5.84,4.17,12.2,7.62,18.78,10.47,12.55,5.44,25.99,8.45,39.66,8.83,18.15.5,42.53-3.43,47.05-24.51,1.53-7.15,2.18-14.46-.79-21.34-1.3-3.02-3.11-5.85-5.26-8.34-2.29-2.65-5.16-4.57-7.68-6.98s-4.46-5.46-6.18-8.42-3.04-6.02-4.03-9.24c-1.11-3.62-2.2-7.21-3.56-10.75s-2.61-7.33-4.87-10.36c-2.09-2.8-4.87-5.22-7.41-7.61s-5.3-4.81-8.3-6.75-6.57-3.65-9.96-5.07c-3.2-1.34-6.54-2.28-9.99-2.65-12.81-1.41-26.01,2.94-36.21,10.63-2.54,1.91-4.91,4.05-7.09,6.37-.55.59.48.74.87.74.76-.01,1.77-.3,2.32-.87Z"/>
          <path class="cls-1" d="M25.55,456.56c2.73,4.85,3.85,10.34,5.82,15.49s5.01,9.67,8.32,14.02c6.54,8.59,14.65,17.33,15.74,28.58.66,6.86-1.77,13.35-7.99,16.76-5.54,3.04-12.46,3.26-18.62,3.01-7.71-.31-15.34-1.78-22.49-4.71-7.99-3.28-15.37-8.13-21.49-14.23-11.5-11.48-18.37-28.37-12.13-44.23,3.47-8.84,10.31-16.81,18.7-21.28s20.34-5.26,28.74.58c2.27,1.58,4.02,3.64,5.41,6.02.45.77,3.69-.56,3.48-.93-5.73-9.79-18.07-11.94-28.45-9.88-10.57,2.1-19.64,8.16-26.03,16.77-5.28,7.12-8.26,15.75-7.67,24.66s4.14,16.47,9.21,23.19c10.71,14.2,27.51,23.12,45.09,24.97,7.33.77,14.94.72,22.08-1.25,6.4-1.76,12.77-5.32,14.9-12.02,3.22-10.12-2.51-20.49-8.37-28.38-3.52-4.75-7.42-9.21-10.63-14.19-1.59-2.47-3-5.05-4.08-7.79s-1.89-5.54-2.81-8.33-1.86-5.3-3.24-7.76c-.43-.77-3.7.54-3.48.93Z"/>
        </g>
        <g>
          <path class="cls-1" d="M459.85,443.87c-18.11-20.77-44.1-32.53-63.74-51.7-9.24-9.02-16.72-19.52-21.66-31.48-4.58-11.09-6.97-22.93-8.39-34.81-2.85-23.84-2.1-48.14-7.88-71.58-3.22-13.05-9.53-24.91-13.46-37.71-1.9-6.21-3.76-13.53-2.62-20.05.72-4.13,3.28-5.87,7.42-5.6,3.55.22,7.11.92,10.63,1.43,61.54,8.9,123.05,18.61,183.98,31.12,57.41,11.78,115.21,30.38,174.53,24.04,13.97-1.49,27.49-4.89,41.12-8.16,13.91-3.34,28.25-6.49,42.65-5.48,25.63,1.8,44.87,22.12,61.36,39.87,18.23,19.61,34.17,41.41,44.31,66.34s13.44,49.62,11.9,75.19c-3.09,51.11-26.53,99.23-63.64,134.27-37.51,35.43-86.49,56.83-137.25,64.35-29.7,4.4-59.75,4.05-89.57,1.14-25.35-2.47-50.76-5.43-73.78-17.08-20.85-10.55-38.24-27.08-48.97-47.92-12.23-23.75-17.37-50.15-27.81-74.6-4.87-11.39-11.06-22.14-19.12-31.57-.86-1.01-4.19.27-3.21,1.42,17.84,20.87,24.81,47.25,33.32,72.73,4.32,12.94,9.15,25.88,15.96,37.75,5.87,10.23,13.42,19.45,22.27,27.24,17.3,15.24,38.99,24.76,61.5,29.17,14.09,2.76,28.56,4.16,42.85,5.44,15.24,1.37,30.55,2.08,45.85,1.76,53.84-1.13,107.46-15.53,152.19-46.1,42.34-28.93,74.2-71.34,87.04-121.27,6.4-24.88,8.07-51.09,4.05-76.51-4.2-26.52-15.08-51.28-30.3-73.31-7.64-11.05-16.32-21.25-25.48-31.06-8.56-9.16-17.45-18.13-27.54-25.61s-21.01-12.69-33.64-13.73c-13.78-1.14-27.58,1.46-40.95,4.55-14.49,3.34-28.78,7.26-43.6,8.93-15.23,1.71-30.59,1.72-45.86.56-30.86-2.33-61.12-9.3-91.2-16.21-61.4-14.11-123.55-24.65-185.82-34.11-7.88-1.2-15.77-2.37-23.66-3.53-7.41-1.09-14.9-2.6-22.37-3.18-4.7-.37-9.83.76-11.87,5.49-2.41,5.57-.71,13.26.67,18.87,3.31,13.46,10.25,25.68,13.89,39.06,3.28,12.05,4.74,24.5,5.71,36.92,1.9,24.34,1.89,49.55,11.34,72.48,4.87,11.82,12.16,22.3,21.22,31.29,9.83,9.75,21.19,17.76,32.45,25.74,11.37,8.07,22.77,16.07,31.98,26.64.87,1,4.2-.29,3.21-1.42Z"/>
          <path class="cls-1" d="M377.15,216.76c2.58-2.03,6.81-.86,9.81-.5,3.7.45,7.4.91,11.09,1.37,7.11.89,14.23,1.81,21.33,2.75,14.03,1.87,28.04,3.87,42.02,6.05,28.25,4.41,56.36,9.71,84.39,15.3s54.24,12.03,81.48,17.46c26.99,5.38,54.5,9.27,82.08,8.05,12.81-.57,25.41-2.37,37.91-5.19s25.92-6.53,39.23-7.61c12.49-1.01,24.4.59,35.32,6.96,9.93,5.79,18.54,13.68,26.55,21.85,17.11,17.45,32.4,36.66,43.14,58.73s15.85,44.33,16.25,67.93c.8,47.27-17.81,93.68-49.86,128.22-31.6,34.06-74.65,56.53-119.93,65.98-27.28,5.7-55.19,6.94-82.96,5.14-13.85-.9-27.66-2.45-41.41-4.36-10.59-1.47-21-4.04-30.97-7.92-19.68-7.66-37.2-20.56-49.31-37.97-13.78-19.81-19.48-43.84-27.25-66.33-3.91-11.32-8.46-22.48-14.91-32.62-6.69-10.51-15.23-19.22-25.05-26.83-19.61-15.21-42.22-28.43-55.3-50.27-11.45-19.12-13.69-41.42-15.21-63.18-.78-11.2-1.45-22.43-3.21-33.53-1.88-11.84-5.47-22.81-9.99-33.87-2.39-5.87-4.74-11.8-6.15-18-1.17-5.18-3.08-13.55,1.12-17.81.86-.88-2.51-.58-3.19.11-4.02,4.08-2.81,11.27-1.88,16.33,1.23,6.71,3.7,13.12,6.26,19.42,4.57,11.25,8.34,22.33,10.28,34.36,3.63,22.53,2.57,45.63,7.38,67.99,2.41,11.18,6.42,22,12.66,31.62,6.79,10.48,15.93,19.11,25.64,26.86s20.51,15.03,30.47,22.93c10.49,8.32,19.24,18.32,25.79,30.01,12.1,21.6,16.81,46.28,26.13,69.04,4.37,10.67,9.65,20.92,16.82,29.99,6.63,8.38,14.61,15.64,23.49,21.57,18.64,12.45,39.8,17.96,61.78,20.77,27.43,3.51,55.16,5.43,82.78,3.23,48.36-3.85,95.86-19.99,134.37-49.94s64.13-70.83,72.38-117.94c4.09-23.34,3.7-47.57-2.07-70.6-6.06-24.17-18.15-46.53-33.41-66.11-7.29-9.35-15.35-18.19-23.77-26.54-8.15-8.09-17-15.85-27.25-21.17-22.57-11.74-49.2-3.78-72.42,1.59-13.8,3.19-27.67,5.21-41.84,5.64-14.23.44-28.47-.48-42.59-2.22-28.58-3.53-56.59-10.39-84.66-16.59-56.9-12.57-114.39-22.46-172.18-29.86-6.73-.86-13.47-1.7-20.2-2.52-4.71-.57-9.73-1.2-13.72,1.94-1.46,1.15,1.99.89,2.72.32Z"/>
          <path class="cls-1" d="M409.8,242.21c2.37-1.91,5.58-1.21,8.39-.94,3.35.32,6.69.65,10.03.99,6.32.64,12.64,1.3,18.95,2,13.03,1.45,26.05,3.08,39.02,4.99,25.82,3.81,51.41,9.01,76.97,14.26,25.19,5.17,50.24,11.08,75.5,15.9s49.38,8,74.37,7.11c12.16-.43,24.15-2,36.04-4.56,11.87-2.56,23.71-5.68,35.86-6.59,11.27-.85,22.09.58,31.98,6.26,9.26,5.32,17.24,12.67,24.65,20.29,15.56,16,29.21,33.73,38.81,53.96,9.34,19.7,14.5,41.01,14.83,62.82.65,43.19-16.12,85.54-45.37,117.18-28.58,30.92-67.39,51.45-108.32,60.46-24.84,5.47-50.32,6.85-75.68,5.39-12.64-.73-25.23-2.09-37.77-3.77-9.88-1.32-19.57-3.48-28.92-6.96-18.07-6.74-34.27-18.26-45.63-33.93-13.06-18.02-18.57-40.08-25.61-60.84-3.41-10.06-7.29-20-12.64-29.21-5.8-9.99-13.34-18.61-22.25-25.93-17.54-14.41-38.11-26.56-50.68-46.02-11.33-17.53-13.74-38.38-15.26-58.72-.77-10.29-1.4-20.61-3-30.82-1.68-10.68-4.81-20.65-8.87-30.64-2.18-5.35-4.35-10.73-5.7-16.36-1.11-4.62-3.14-12.66.6-16.56,1.46-1.52-1.91-1.78-2.85-.8-3.61,3.76-2.78,9.81-2,14.51,1.01,6.12,3.19,11.97,5.49,17.71,4.16,10.37,7.77,20.52,9.62,31.59,3.46,20.7,2.55,41.95,7.07,62.5,2.2,10.01,5.8,19.69,11.29,28.38,6.19,9.8,14.66,17.87,23.55,25.2,9.04,7.45,18.65,14.18,27.71,21.61s17,16.71,22.88,27.18c11.26,20.05,15.6,43.04,24.31,64.17,4.03,9.79,8.89,19.24,15.48,27.58,6.05,7.65,13.34,14.31,21.41,19.78,16.66,11.28,35.77,16.64,55.51,19.21,25.26,3.28,50.78,5.11,76.24,3.17,44.73-3.4,88.74-18.42,124.23-46.25,16.61-13.02,31.24-28.69,42.49-46.58,11.65-18.51,19.66-39.35,23.54-60.87,3.86-21.42,3.62-43.71-1.45-64.91-5.29-22.1-15.87-42.88-29.42-61.04-6.53-8.74-13.84-16.93-21.5-24.7s-15.46-14.78-24.72-19.97c-20.69-11.58-44.97-5.18-66.68-.35-12.24,2.72-24.5,4.6-37.04,5.15-13.4.59-26.83-.11-40.15-1.59-26.02-2.89-51.58-8.78-77.12-14.36-25.96-5.67-52.02-11.03-78.15-15.85s-52.73-8.43-79.3-11.26c-6.12-.65-12.24-1.27-18.37-1.87-4.82-.47-10.51-1.7-14.63,1.62-1.83,1.48,1.02,2.28,2.23,1.31Z"/>
          <path class="cls-1" d="M442.99,266.89c1.99-1.66,5.37-.92,7.75-.77,2.97.19,5.93.39,8.9.61,5.64.4,11.29.83,16.92,1.32,11.75,1.01,23.48,2.25,35.17,3.87,23.57,3.27,46.81,8.43,70.07,13.37,22.87,4.86,45.72,10.04,68.73,14.18s44.97,6.75,67.7,5.93c10.93-.39,21.73-1.72,32.44-3.9s21.5-4.85,32.5-5.57c10.4-.68,20.34.78,29.41,6.1,8.47,4.96,15.76,11.76,22.52,18.82,13.93,14.55,25.86,30.72,34.27,49.1,8.35,18.23,13.08,37.83,13.32,57.92.45,39.25-14.67,77.65-41.26,106.43-25.77,27.89-60.63,46.56-97.52,54.88-22.59,5.1-45.78,6.47-68.87,5.2-11.39-.62-22.75-1.83-34.06-3.33-8.95-1.19-17.74-3.11-26.23-6.23-16.41-6.03-31.16-16.39-41.61-30.49-11.9-16.07-17.16-35.8-23.39-54.49-3.1-9.29-6.53-18.5-11.23-27.11-5.08-9.31-11.7-17.6-19.72-24.55-15.63-13.55-34.15-24.9-45.8-42.41-10.55-15.86-12.99-34.84-14.48-53.39-.75-9.36-1.36-18.76-2.84-28.04-1.54-9.69-4.37-18.76-8.05-27.84-1.95-4.82-3.9-9.68-5.11-14.74-.99-4.13-2.81-11.33.47-14.86,1.43-1.54-1.93-1.74-2.84-.76-3.23,3.46-2.51,8.85-1.8,13.15.91,5.51,2.86,10.79,4.92,15.96,3.76,9.42,7.02,18.64,8.71,28.68,3.18,18.84,2.46,38.19,6.77,56.86,2.11,9.14,5.53,17.95,10.65,25.83,5.93,9.12,14.01,16.67,22.31,23.61,8.29,6.93,17.06,13.29,25.13,20.49,8.14,7.26,14.73,16.06,19.69,25.76,9.39,18.38,13.44,38.88,21.5,57.8,3.81,8.93,8.43,17.47,14.63,24.98,5.47,6.63,11.96,12.39,19.11,17.15,15.46,10.29,33.08,14.98,51.3,17.3,22.93,2.91,46.1,4.41,69.18,2.46,40.41-3.41,80.08-17.3,112.03-42.64,15.19-12.05,28.57-26.53,38.76-43.05s17.57-35.95,20.94-55.55c3.32-19.28,3-39.28-1.52-58.35-4.79-20.2-14.17-39.42-26.35-56.17-5.87-8.07-12.51-15.61-19.5-22.73s-14.39-13.76-23.07-18.45c-18.96-10.24-41.29-4.32-61.12-.19-23.08,4.8-46.43,5.22-69.83,2.75-23.77-2.51-47.15-7.62-70.49-12.62-23.74-5.08-47.47-10.34-71.33-14.85-23.7-4.48-47.6-7.32-71.64-9.18-5.43-.42-10.87-.8-16.3-1.16-4.45-.29-9.02-.91-12.68,2.16-.64.54-.24,1.17.38,1.42.8.32,1.86-.16,2.46-.66Z"/>
          <path class="cls-1" d="M475.64,292.34c1.65-1.45,3.81-1.25,5.88-1.2,2.58.06,5.17.13,7.75.21,5.06.16,10.11.36,15.16.63,10.47.56,20.93,1.39,31.34,2.68,21.02,2.6,41.63,7.5,62.27,12.11,20.49,4.57,41.08,9.01,61.78,12.58s41.3,5.91,62.13,5.3c9.93-.29,19.8-1.32,29.57-3.13s19.3-4.06,29.14-4.67c9.31-.58,18.49.51,26.68,5.2,7.71,4.41,14.38,10.56,20.48,16.96,12.54,13.16,23.04,27.92,30.41,44.58s11.53,33.7,11.91,51.57c.74,35.29-12.39,69.87-35.98,96.04-22.9,25.41-54.25,42.58-87.4,50.4-19.96,4.71-40.51,6.17-60.97,5.24-10.32-.47-20.6-1.49-30.84-2.79-8.24-1.05-16.33-2.65-24.17-5.45-14.5-5.17-27.68-13.92-37.25-26.08-11.16-14.18-16.28-31.84-21.82-48.72-5.71-17.39-12.64-34.21-25.9-47.28-13.56-13.36-30.38-23.54-41.56-39.26-10.04-14.13-12.7-31.19-14.21-48.06-.76-8.46-1.32-16.95-2.64-25.35s-3.82-16.99-7.12-25.19c-1.77-4.4-3.56-8.83-4.69-13.45-.9-3.7-2.52-9.95.35-13.14,1.48-1.65-1.82-2.42-2.95-1.16-2.88,3.21-2.18,8.22-1.52,12.13.85,5.03,2.64,9.84,4.53,14.56,3.39,8.52,6.23,16.89,7.73,25.97,2.82,17.03,2.3,34.56,6.57,51.36,2.11,8.32,5.49,16.32,10.4,23.38,5.43,7.82,12.54,14.46,19.69,20.67,7.46,6.48,15.42,12.47,22.49,19.39s12.51,15.01,16.72,23.81c8.15,17.02,11.85,35.76,19.59,52.96,6.75,14.98,16.78,27.72,30.68,36.68,14.11,9.1,30.05,13.24,46.55,15.25,20.43,2.49,41.09,3.72,61.64,1.85,36.46-3.31,72.09-16.16,100.73-39.26,13.53-10.91,25.4-24.02,34.43-38.89s15.54-32.31,18.52-49.91c2.96-17.48,2.63-35.6-1.42-52.88-4.26-18.16-12.33-35.69-23.03-50.95-5.18-7.39-11.11-14.26-17.39-20.73-6.19-6.37-12.89-12.47-20.7-16.79-16.98-9.41-36.93-4.69-54.89-1.21-21.01,4.07-42.28,4.52-63.56,2.48-21.51-2.07-42.72-6.34-63.84-10.77s-42.04-9.45-63.17-13.64c-21.26-4.21-42.74-6.42-64.38-7.36-4.69-.2-9.38-.36-14.07-.49-4.04-.11-8.7-.8-11.99,2.09-1.77,1.55.96,2.97,2.35,1.75Z"/>
          <path class="cls-1" d="M508.76,316.75c1.39-1.29,3.51-1.06,5.28-1.11,2.23-.06,4.46-.11,6.69-.15,4.32-.07,8.64-.09,12.96-.03,9.23.13,18.46.6,27.63,1.61,18.58,2.03,36.68,6.81,54.83,11.09,17.98,4.24,36.15,7.96,54.4,10.86s36.95,4.75,55.56,4.23c8.88-.25,17.72-1,26.48-2.47s17.21-3.29,25.95-3.71c8.24-.4,16.37.67,23.63,4.76,6.8,3.83,12.66,9.22,18.02,14.84,11.32,11.87,20.5,25.31,26.92,40.44,6.17,14.56,10.04,30.01,10.53,45.85.97,31.48-10.42,62.72-31.3,86.25s-47.35,38.09-76.52,45.37c-17.83,4.45-36.23,5.9-54.56,5.17-9.07-.36-18.12-1.21-27.13-2.32-7.29-.9-14.46-2.3-21.41-4.7-12.9-4.44-24.67-12.12-33.36-22.69-10.2-12.41-15.07-28.02-19.97-43.06-5.02-15.37-10.67-30.67-21.76-42.81-11.48-12.57-26.04-22.04-36.37-35.74-9.49-12.6-12.26-27.98-13.78-43.31-.74-7.48-1.29-15-2.47-22.43-1.24-7.8-3.41-15.17-6.34-22.5-1.54-3.86-3.09-7.75-4.07-11.8-.48-2-.83-4.04-.95-6.09-.1-1.82-.15-4.08,1.11-5.55,1.35-1.58-2-1.63-2.82-.67-2.48,2.9-1.97,7.01-1.38,10.52.74,4.41,2.3,8.62,3.94,12.77,3,7.6,5.51,15.08,6.86,23.16,2.56,15.26,2.22,30.99,6.38,45.97,2.07,7.47,5.34,14.59,9.95,20.84,5.13,6.96,11.53,12.98,17.92,18.76s13.72,11.69,19.66,18.41c5.66,6.41,10.02,13.79,13.44,21.61,6.75,15.46,10.23,32.14,17.52,47.38,6.15,12.87,15.33,23.65,27.47,31.23,12.74,7.96,27.05,11.37,41.81,13.1,18.44,2.16,37.08,3.04,55.57,1.07,32.06-3.42,63.18-15.24,88.21-35.79,12.08-9.92,22.68-21.86,30.6-35.36,8.04-13.7,13.41-28.96,15.83-44.65,5.01-32.41-3.56-66.04-22.25-92.89-4.51-6.48-9.7-12.53-15.21-18.17-5.47-5.6-11.52-10.96-18.49-14.62-15.48-8.13-33.84-3.57-50.1-.82-37.8,6.4-76.19.05-113.3-7.61-18.63-3.85-37.02-8.8-55.66-12.56s-37.44-5.17-56.39-5.12c-4.11.01-8.22.08-12.33.2-3.54.1-7.25-.03-10.02,2.55-.58.54-.31,1.1.36,1.33.76.26,1.89-.13,2.46-.66Z"/>
          <path class="cls-1" d="M541.66,341.72c1.09-1.1,2.54-1.08,4-1.23,1.84-.19,3.69-.36,5.53-.52,3.62-.31,7.25-.55,10.89-.7,7.93-.34,15.9-.24,23.81.43,16.11,1.37,31.66,5.84,47.27,9.82s31.7,7.16,47.76,9.46,31.77,3.57,47.75,3.26c7.83-.15,15.68-.61,23.45-1.65s15.18-2.5,22.87-2.92c7.24-.39,14.73.28,21.25,3.67,6.02,3.13,11.19,7.73,15.88,12.57,9.84,10.16,17.73,21.78,23.22,34.83s9.08,26.76,9.78,40.79c1.37,27.5-7.82,55.17-25.6,76.2-17.12,20.24-40.8,34.43-66.3,41.34-15.27,4.14-31.11,5.72-46.9,5.34-7.92-.19-15.82-.83-23.69-1.73-6.53-.75-12.97-1.81-19.25-3.81-11.42-3.64-21.95-10.05-29.89-19.09-9.06-10.32-13.75-23.4-17.97-36.25-4.48-13.62-8.85-27.47-17.74-38.97-4.67-6.03-10.42-11.18-15.88-16.47s-10.83-10.63-15.57-16.55c-8.71-10.89-11.73-24.12-13.28-37.69-.76-6.64-1.29-13.31-2.35-19.92s-2.91-13.33-5.45-19.76c-1.35-3.41-2.72-6.83-3.59-10.4-.74-3.02-1.9-7.63.23-10.32.53-.67-.46-1.09-.97-1.14-.85-.07-1.76.32-2.29.98-2.15,2.71-1.38,6.96-.74,10.08.79,3.87,2.24,7.56,3.68,11.21,2.61,6.61,4.54,13.25,5.66,20.27,2.14,13.4,2.09,27.25,6.33,40.26,2.17,6.66,5.5,12.81,9.91,18.25,4.89,6.04,10.43,11.49,16.01,16.88s11.72,10.97,16.41,17.47c4.34,6.02,7.6,12.69,10.27,19.6,5.38,13.9,8.72,28.57,15.8,41.78,5.7,10.62,14.23,19.37,24.67,25.38,5.4,3.11,11.22,5.47,17.21,7.16,6.67,1.88,13.52,2.75,20.4,3.48,16.16,1.71,32.5,2.14,48.65,0,27.91-3.69,54.83-14.77,76.19-33.3,10.4-9.02,19.44-19.79,26.03-31.89,6.67-12.23,10.98-25.73,12.73-39.54s.94-27.8-2.54-41.22c-3.71-14.31-9.46-28.24-18.01-40.37-3.95-5.61-8.49-10.87-13.36-15.71s-10.2-9.35-16.4-12.23c-13.87-6.44-30.04-2.4-44.45-.43-32.87,4.5-66.5.1-98.76-6.54-16.11-3.32-31.85-8.16-47.96-11.48-15.98-3.3-32.2-4-48.46-3-3.45.21-6.9.5-10.34.83-3.1.3-6.41.43-8.73,2.78-.54.54-.35,1.13.36,1.35.76.23,1.9-.1,2.46-.66Z"/>
          <path class="cls-1" d="M574.74,366.28c.9-1,2.16-1.11,3.41-1.37,1.49-.31,2.99-.59,4.49-.85,2.98-.52,5.98-.96,8.99-1.29,6.68-.74,13.44-.97,20.15-.53,13.76.91,26.87,5.18,40.07,8.84,26.32,7.31,53.89,10.47,81.18,9.89,6.85-.15,13.71-.49,20.52-1.19,6.6-.68,13.17-1.75,19.81-1.89,6.2-.13,12.56.61,18.13,3.5,5.19,2.69,9.68,6.72,13.7,10.92,8.53,8.89,15.12,19.15,19.6,30.64,4.3,11.02,7.23,22.84,7.91,34.66,1.35,23.5-5.97,47.27-20.76,65.62-14.28,17.72-34.36,30.43-56.13,36.79-12.78,3.73-26.08,5.31-39.38,5.22-6.83-.05-13.64-.53-20.43-1.26-5.65-.61-11.23-1.44-16.68-3.1-9.7-2.94-18.68-8.08-25.69-15.44-8.06-8.46-12.52-19.32-16.23-30.23-3.99-11.73-7.33-23.83-14.1-34.35-3.5-5.44-7.91-10.14-12.3-14.86s-8.96-9.56-13.09-14.65-7.27-10.02-9.43-15.96c-1.97-5.44-3.04-11.15-3.83-16.86s-1.32-11.58-2.25-17.33c-.95-5.91-2.46-11.59-4.63-17.17-1.14-2.93-2.31-5.87-3.06-8.93-.62-2.54-1.64-6.49.04-8.81.46-.64-.4-.8-.88-.8-.7,0-1.86.28-2.31.89-1.74,2.4-1.15,5.8-.58,8.51.69,3.32,1.93,6.48,3.15,9.63,2.23,5.74,3.82,11.54,4.81,17.61,1.89,11.69,2.12,23.8,6.38,34.99,4.68,12.31,14.65,21.74,23.43,31.21,4.56,4.91,9,9.83,12.43,15.62s5.76,11.57,7.91,17.66c4.2,11.9,7.34,24.39,13.88,35.3,5.27,8.79,12.84,15.84,21.87,20.67,10.26,5.48,21.5,7.39,32.96,8.44,13.71,1.27,27.55,1.31,41.18-.79,23.81-3.68,46.76-13.71,64.69-29.97,8.69-7.89,16.17-17.11,21.63-27.52,5.6-10.67,9.1-22.41,10.44-34.38,1.34-11.97.37-23.9-2.51-35.57-3.02-12.26-7.63-24.23-14.83-34.67-3.36-4.88-7.25-9.46-11.45-13.63-4.2-4.17-8.94-8.08-14.4-10.47-12.16-5.31-26.25-2.07-38.88-.81-28.07,2.8-56.77.7-84.35-5.05-13.77-2.87-27.04-7.65-40.8-10.54-13.51-2.84-27.36-2.84-41-.86-2.81.41-5.61.9-8.39,1.46s-5.61.98-7.56,3.15c-.55.61.47.8.88.8.77,0,1.78-.3,2.31-.89Z"/>
          <path class="cls-1" d="M607.75,390.98c1.25-1.62,4.01-2.14,5.87-2.74,2.26-.74,4.57-1.36,6.9-1.86,5.31-1.14,10.74-1.71,16.17-1.57,11.35.28,22.05,4.18,32.76,7.55s21.75,5.54,32.98,6.63c11.33,1.1,22.72,1.17,34.08.84,5.72-.17,11.45-.42,17.16-.76,5.46-.33,10.91-.98,16.39-.97s10.78.57,15.61,2.83c4.4,2.07,8.21,5.29,11.6,8.73,7.12,7.22,12.63,15.72,16.28,25.18s5.92,19.38,6.74,29.3c1.59,19.46-3.58,39.6-15.17,55.41-11.31,15.43-27.72,26.84-45.78,32.95-10.3,3.48-21.16,5.17-32.01,5.41-5.66.13-11.32-.14-16.96-.65-4.93-.45-9.83-1.05-14.62-2.34-8.11-2.18-15.72-6.13-21.86-11.9-6.88-6.48-11.09-14.87-14.34-23.64-3.66-9.86-6.21-20.15-10.93-29.59-5.03-10.07-12.98-18.3-19.78-27.16-3.27-4.26-6.47-8.54-8.6-13.5-1.94-4.53-3.09-9.33-3.93-14.17-1.69-9.8-2.45-19.65-6-29.02-.91-2.4-1.86-4.79-2.5-7.28-.59-2.32-1.4-5.5-.05-7.68.34-.55-1.25-.38-1.4-.35-.65.11-1.66.35-2.04.96-1.34,2.17-.66,5.25-.11,7.57.63,2.64,1.64,5.18,2.6,7.72,1.85,4.88,3.06,9.9,3.9,15.04,1.63,9.95,2.29,20.24,6.63,29.49,2.36,5.04,5.86,9.44,9.27,13.8,3.6,4.62,7.34,9.12,10.96,13.73s6.52,9.35,8.88,14.58,4.01,10.19,5.72,15.39c3.22,9.8,6.35,20.01,12.45,28.47,4.96,6.88,11.69,12.27,19.42,15.75,9.03,4.08,18.77,5.29,28.56,5.92,11.49.75,23.07.25,34.36-2.08,19.58-4.03,38.18-13.23,52.42-27.39,7.12-7.07,13.06-15.29,17.2-24.43,4.13-9.12,6.54-18.99,7.24-28.97s-.59-20.21-3.01-30.08c-2.52-10.24-6.44-20.26-12.75-28.78-5.63-7.61-12.83-15.69-22.08-18.75-10.64-3.52-22.24-1.38-33.16-.79-23.47,1.27-47.5,1.74-70.49-3.91-11.14-2.74-21.78-7.3-33.09-9.42s-22.31-1.15-32.99,1.8c-2.26.62-4.5,1.34-6.69,2.15-1.99.74-3.92,1.45-5.26,3.18-.39.51,1.28.37,1.4.35.71-.12,1.58-.37,2.04-.96Z"/>
          <path class="cls-1" d="M640.64,415.93c.9-1.48,2.46-2.39,3.91-3.27,1.53-.92,3.13-1.73,4.79-2.41,3.64-1.5,7.51-2.39,11.43-2.67,8.93-.63,17.29,2.59,25.51,5.65,4.13,1.54,8.28,3.06,12.57,4.06s8.83,1.64,13.3,1.99c9,.7,18.03.23,27.03-.29,8.93-.51,17.92-1.09,26.87-.87,4.29.11,8.6.57,12.66,1.99s7.19,3.73,10.17,6.51c5.99,5.6,10.67,12.56,13.7,20.17,3,7.56,4.53,15.62,5.41,23.68,1.72,15.69-1.58,32.03-10.07,45.42s-21.09,23.1-35.3,28.84c-7.94,3.21-16.38,5.05-24.92,5.65-4.45.31-8.91.28-13.36,0-4.14-.25-8.29-.64-12.34-1.56-6.61-1.5-12.9-4.33-18.14-8.67-5.58-4.63-9.4-10.68-12.25-17.29-3.38-7.83-5.47-16.14-8.49-24.1-1.53-4.02-3.3-7.95-5.5-11.65-2.36-3.99-4.99-7.83-7.52-11.71-2.49-3.81-5.17-7.57-7.41-11.53-2.06-3.65-3.43-7.62-4.42-11.67-1.94-7.97-2.56-16.22-5.34-23.98-.7-1.95-1.47-3.88-2.01-5.89s-1.2-4.46-.28-6.38c.27-.57-1.2-.36-1.39-.33-.56.09-1.75.34-2.04.94-.88,1.85-.4,4.13.06,6.03.54,2.24,1.41,4.38,2.18,6.55,1.45,4.07,2.35,8.3,3.12,12.54,1.53,8.45,2.83,17.05,7.45,24.48,2.51,4.04,5.18,8,7.78,11.98s5.33,7.91,7.58,12.09c4.27,7.91,6.66,16.6,9.54,25.07,2.56,7.52,5.59,15.05,10.77,21.18,4.43,5.25,10.2,9.15,16.6,11.6,7.63,2.93,15.9,3.69,24.01,3.89,9.33.23,18.67-.76,27.69-3.19,15.39-4.15,29.77-12.5,40.43-24.43,10.93-12.23,16.92-27.93,17.45-44.29.27-8.24-.86-16.65-2.82-24.65-2.03-8.29-5.39-16.14-10.61-22.94s-11.11-12.28-19.24-14.4c-4.28-1.12-8.74-1.37-13.15-1.37s-9.09.13-13.63.31c-18.85.74-38.12,3.31-56.44-2.65-8.58-2.79-16.89-6.94-25.96-7.98-8.4-.97-17.17.7-24.77,4.38-2.8,1.35-6.4,3.06-8.06,5.81-.33.54,1.24.35,1.39.33.62-.11,1.68-.34,2.04-.94Z"/>
          <path class="cls-1" d="M673.53,440.89c1.76-4.95,6.78-8.69,11.7-10.1,6.2-1.77,12.33.42,17.98,2.95s11.54,5.29,18.04,6.06,13.24-.04,19.79-.94c6.76-.93,13.47-1.82,20.32-1.4,6.34.39,12.84,1.63,18.08,5.45,10.29,7.49,15.23,20.13,16.67,32.38,1.44,12.25.2,24.67-5.27,35.84s-14.51,19.84-25.19,25.46c-11.52,6.05-25.19,8.19-38.02,5.86-5.15-.94-10.11-2.82-14.37-5.91s-7.36-6.99-9.75-11.49c-2.99-5.62-4.85-11.75-6.72-17.81-2-6.46-4.28-12.68-7.07-18.84-1.45-3.19-2.9-6.39-4.45-9.54s-3.25-6.11-4.46-9.36c-2.31-6.17-3.27-12.72-5.25-18.99-.5-1.58-1.09-3.13-1.53-4.72s-.89-3.31-.46-4.88c.2-.72-3.19-.28-3.43.61-.89,3.22.99,6.92,1.95,9.93,1.05,3.32,1.81,6.72,2.64,10.1s1.73,6.73,3.03,9.96,3.21,6.52,4.78,9.79c3.11,6.47,6.21,13.01,8.53,19.81s3.96,13.35,6.61,19.78c2.15,5.21,4.96,10.17,9.05,14.1,3.75,3.6,8.37,6.14,13.33,7.66,6.22,1.91,12.93,2.28,19.39,1.99,7.14-.32,14.25-1.78,20.93-4.31,11.52-4.36,21.84-11.93,29.14-21.89s11-23.39,10.64-36.2c-.36-13-3.41-25.92-12.29-35.81-2.18-2.42-4.65-4.65-7.51-6.24s-5.99-2.62-9.18-3.25c-6.68-1.32-13.63-1.28-20.38-.56s-13.88,2.18-20.9,2.29c-3.73.06-7.47-.26-11.09-1.2-3.29-.85-6.4-2.25-9.48-3.65-5.85-2.67-11.78-5.39-18.36-5.09-5.84.27-11.79,2.52-16.19,6.4-1.97,1.74-3.72,3.88-4.61,6.37-.23.64,3.11.29,3.43-.61Z"/>
          <path class="cls-1" d="M712.17,483.12c-1.6-5.12-4.45-9.85-5.44-15.15-.83-4.46.19-9.15,3.42-12.46,1.24-1.27,2.83-2.48,4.63-2.78,2.23-.37,4.53.43,6.51,1.39,4.34,2.09,8.13,5.42,12.91,6.53s9.63-.1,14.16-1.54,9.01-3.35,13.8-2.73c9.85,1.29,17.47,10,20.9,18.79,3.69,9.46,3.84,20.51.61,30.12-2.93,8.71-8.49,16.51-15.61,22.3-6.81,5.53-15.21,9.15-24.09,8.44-6.94-.56-13.43-3.45-17.86-8.92-4.16-5.15-6.32-11.65-7.94-17.97-1.8-7.01-2.93-14.16-4.67-21.18-.4-1.62-.84-3.24-1.33-4.84-.23-.76-3.7.21-3.48.93,2.2,7.24,3.39,14.74,5.06,22.11,1.57,6.93,3.49,14.1,7.53,20.05s10.12,9.65,17.21,10.82c9.28,1.53,18.77-.85,26.8-5.59s15.22-12.46,19.49-21.15c4.58-9.32,5.82-20.2,3.51-30.33s-8.76-19.93-18.72-23.72c-4.72-1.79-9.57-1.6-14.41-.37s-9.65,3.74-14.73,3.8c-5.55.07-9.83-3.48-14.45-6.01-2.12-1.16-4.4-2.14-6.84-2.36-2.24-.2-4.52.2-6.62.97-4.11,1.51-7.45,4.76-8.85,8.94-1.7,5.09-.02,10.23,1.94,14.97,1.08,2.6,2.23,5.17,3.07,7.86.24.76,3.7-.22,3.48-.93Z"/>
        </g>
      </g>
    </g>
  </g>
</svg>